<svg width="157.000000" height="50.000000" viewBox="0 0 157 50" fill="none" xmlns="http://www.w3.org/2000/svg" xmlns:xlink="http://www.w3.org/1999/xlink">
	<desc>
			Created with Pixso.
	</desc>
	<defs/>
	<path id="LOGO" d="M3.51 10.53C7.35 4.61 14.56 0.72 22.89 0.09C27.6 -0.28 32.3 0.45 36.64 2.22C42.23 4.49 46.78 8.86 48.53 13.62C49.03 14.99 49.3 16.19 49.3 17.02C49.3 17.3 49.27 17.53 49.2 17.72C49.17 17.8 49.16 17.88 49.16 17.95C49.16 18.11 49.23 18.3 49.43 18.69C49.73 19.3 49.75 19.42 49.75 20.29L49.75 20.35C49.75 21.21 49.72 21.41 49.49 21.9C49.15 22.63 48.37 23.46 47.68 23.82L47.14 24.1L47.14 26.52L47.7 26.78C48.55 27.19 49.51 28.14 49.94 29.02C50.3 29.73 50.47 30.53 50.47 31.33C50.47 32.45 50.13 33.57 49.46 34.44L49.21 34.77L49.47 35.35C49.69 35.81 49.79 36.32 49.79 36.84C49.79 37.92 49.36 39.02 48.59 39.73L48.33 39.97L48.33 41.83C48.33 44.12 48.2 44.85 47.56 46.15C47.19 46.89 46.95 47.24 46.36 47.83C45.13 49.07 43.83 49.7 42.14 49.89C40.96 50.03 9.53 50.03 8.34 49.89C5.96 49.62 3.95 48.23 2.92 46.15C2.27 44.82 2.16 44.14 2.16 41.61L2.16 39.53L1.82 39.04C1.39 38.42 1.17 37.68 1.17 36.91C1.17 36.5 1.24 36.09 1.36 35.68L1.55 35.07L1.16 34.62C0.39 33.75 0 32.59 0 31.39C0 30.59 0.18 29.77 0.55 29.01C0.97 28.14 1.93 27.19 2.78 26.78L3.34 26.52L3.34 23.88L2.97 23.63C1.87 22.89 1.26 21.84 1.19 20.55C1.18 20.42 1.18 20.29 1.18 20.18C1.18 19.79 1.23 19.52 1.36 19.13L1.57 18.51L1.37 17.97C1.24 17.63 1.18 17.29 1.18 16.91C1.18 16.48 1.26 16 1.41 15.39C1.89 13.53 2.52 12.07 3.51 10.53ZM47.14 15.77C45.26 8.39 37.23 2.81 27.42 2.05C21.59 1.61 15.65 2.98 11.15 5.81C7.08 8.38 4.33 11.88 3.34 15.77C3.21 16.26 3.15 16.59 3.15 16.86C3.15 17.09 3.2 17.26 3.29 17.44C3.33 17.52 3.34 17.59 3.37 17.64C3.56 18.03 4.56 18.03 20.84 18.03C22.2 18.03 23.66 18.03 25.24 18.03C26.82 18.03 28.28 18.03 29.64 18.03C45.92 18.03 46.92 18.03 47.11 17.64C47.14 17.59 47.15 17.52 47.19 17.44C47.28 17.26 47.33 17.09 47.33 16.86C47.33 16.59 47.27 16.26 47.14 15.77ZM90.67 4.49C90.67 4.59 90.63 4.68 90.55 4.76C90.48 4.82 90.38 4.88 90.27 4.93C90.17 4.98 90.07 5.03 89.96 5.07C89.85 5.12 89.76 5.15 89.68 5.19C89.61 5.22 89.55 5.26 89.5 5.3L89.36 5.44C89.32 5.48 89.27 5.52 89.21 5.55C89.16 5.59 89.09 5.62 89.01 5.64C88.9 5.67 88.8 5.68 88.72 5.68C88.63 5.68 88.55 5.69 88.47 5.71C88.4 5.72 88.33 5.75 88.27 5.8C88.21 5.85 88.15 5.94 88.09 6.06C88.04 6.17 88.01 6.3 87.98 6.45C87.96 6.6 87.93 6.74 87.89 6.87C87.85 7.01 87.79 7.12 87.7 7.22C87.63 7.31 87.5 7.35 87.33 7.35C87.33 7.45 87.36 7.54 87.42 7.65L87.63 7.93Q87.74 8.06 87.83 8.22C87.89 8.31 87.92 8.4 87.92 8.5C87.92 8.6 87.9 8.69 87.85 8.79C87.81 8.88 87.79 8.98 87.79 9.08L87.78 9.85C87.78 9.87 87.78 9.89 87.78 9.91C87.78 10.06 87.81 10.21 87.87 10.36C87.94 10.52 87.98 10.69 87.98 10.87C87.98 10.97 87.96 11.07 87.92 11.17C87.87 11.26 87.85 11.36 87.85 11.47C87.85 11.83 87.89 12.18 87.96 12.54Q88.07 13.06 88.07 13.62C88.07 13.86 88.05 14.13 88.01 14.41C87.96 14.69 87.86 14.93 87.7 15.12C87.71 15.24 87.74 15.34 87.78 15.43C87.82 15.5 87.86 15.59 87.9 15.68C87.95 15.77 87.98 15.86 88.02 15.97C88.06 16.07 88.08 16.21 88.08 16.38Q88.08 16.61 88.03 16.99C88.01 17.23 87.96 17.47 87.88 17.71C87.8 17.94 87.7 18.14 87.56 18.32C87.44 18.49 87.27 18.57 87.07 18.57L87.02 18.57C87.01 18.56 87 18.56 86.98 18.56L86.97 18.64L86.97 18.67C86.97 18.79 87 18.9 87.07 18.99C87.14 19.08 87.18 19.19 87.18 19.31C87.18 19.37 87.14 19.44 87.07 19.54C87 19.63 86.92 19.73 86.81 19.83C86.71 19.93 86.61 20.03 86.5 20.12C86.4 20.21 86.31 20.29 86.24 20.36C86.17 20.43 86.11 20.51 86.07 20.59C86.03 20.65 85.99 20.72 85.95 20.78C85.92 20.83 85.87 20.87 85.8 20.92C85.74 20.95 85.65 20.98 85.52 21.01C85.3 21.05 85.11 21.11 84.94 21.2C84.77 21.28 84.6 21.37 84.44 21.46C84.28 21.55 84.11 21.62 83.92 21.68C83.74 21.74 83.51 21.78 83.25 21.78C83.11 21.78 82.97 21.76 82.83 21.73C82.7 21.69 82.56 21.66 82.43 21.61C82.29 21.56 82.15 21.52 82.01 21.49C81.88 21.45 81.74 21.44 81.61 21.44C81.5 21.44 81.39 21.44 81.28 21.46C81.17 21.47 81.07 21.47 80.96 21.47C80.87 21.47 80.81 21.47 80.76 21.46C80.71 21.45 80.66 21.42 80.6 21.36C80.56 21.31 80.49 21.26 80.4 21.22C80.32 21.18 80.22 21.14 80.12 21.11C80.02 21.06 79.92 21.03 79.82 21.01C79.72 20.97 79.63 20.95 79.56 20.93C79.41 20.89 79.26 20.8 79.12 20.68C78.99 20.55 78.86 20.41 78.74 20.24C78.63 20.08 78.53 19.9 78.44 19.73C78.35 19.55 78.28 19.39 78.23 19.24C78.13 18.96 78.06 18.66 78.02 18.37C77.98 18.06 77.94 17.76 77.92 17.47C77.89 17.16 77.86 16.86 77.83 16.57C77.8 16.27 77.75 15.97 77.68 15.67C77.64 15.55 77.6 15.43 77.56 15.31C77.53 15.19 77.51 15.06 77.51 14.93C77.51 14.84 77.52 14.75 77.54 14.67L77.59 14.39C77.66 14.03 77.71 13.68 77.74 13.31C77.78 12.95 77.8 12.59 77.8 12.22C77.8 11.74 77.78 11.26 77.73 10.79C77.68 10.32 77.66 9.84 77.66 9.36L77.66 9.09C77.66 9.01 77.67 8.92 77.68 8.82C77.69 8.66 77.73 8.49 77.78 8.33C77.84 8.17 77.87 8.01 77.87 7.84C77.87 7.78 77.86 7.72 77.84 7.67C77.82 7.62 77.81 7.57 77.79 7.51C77.69 7.29 77.63 7.09 77.61 6.91C77.6 6.73 77.58 6.51 77.56 6.28C77.53 5.91 77.45 5.66 77.33 5.5C77.22 5.35 77.08 5.24 76.9 5.17C76.73 5.11 76.54 5.05 76.33 5.01C76.13 4.96 75.91 4.85 75.69 4.68C75.62 4.64 75.56 4.59 75.51 4.53Q75.47 4.46 75.45 4.39Q75.45 4.35 75.45 4.31C75.45 4.18 75.52 4.06 75.66 3.95C75.81 3.84 75.99 3.75 76.19 3.68C76.4 3.61 76.6 3.56 76.8 3.53Q77.11 3.46 77.27 3.46C77.41 3.46 77.53 3.48 77.65 3.51C77.78 3.55 77.91 3.57 78.04 3.57C78.31 3.57 78.58 3.54 78.83 3.48C79.08 3.41 79.35 3.37 79.62 3.37C79.73 3.37 79.89 3.4 80.12 3.44Q80.46 3.5 80.81 3.63C81.03 3.7 81.23 3.8 81.4 3.92C81.58 4.03 81.67 4.16 81.67 4.3C81.67 4.49 81.61 4.66 81.49 4.83C81.38 4.99 81.24 5.15 81.07 5.3C80.9 5.45 80.72 5.61 80.52 5.77C80.32 5.93 80.14 6.1 79.97 6.29C79.8 6.48 79.66 6.69 79.54 6.92C79.43 7.15 79.37 7.41 79.37 7.7C79.37 7.87 79.38 8.04 79.39 8.22C79.4 8.39 79.41 8.55 79.41 8.72C79.41 9.06 79.38 9.4 79.31 9.72C79.25 10.05 79.22 10.39 79.22 10.74C79.22 11.02 79.26 11.27 79.34 11.5C79.42 11.72 79.46 11.89 79.46 12.02C79.46 12.15 79.45 12.28 79.41 12.4C79.39 12.51 79.37 12.63 79.37 12.75L79.37 12.92C79.38 12.97 79.39 13.02 79.39 13.08C79.39 13.22 79.37 13.33 79.32 13.41C79.29 13.5 79.25 13.57 79.21 13.64C79.17 13.71 79.13 13.77 79.08 13.83C79.04 13.89 79.02 13.96 79.02 14.03C79.06 14 79.1 13.97 79.15 13.95C79.19 13.92 79.24 13.91 79.29 13.91C79.35 13.91 79.39 13.93 79.43 13.97C79.46 14.01 79.48 14.06 79.5 14.12C79.53 14.17 79.54 14.23 79.55 14.3C79.56 14.36 79.56 14.41 79.56 14.45C79.56 14.67 79.59 14.89 79.65 15.1C79.72 15.31 79.75 15.53 79.75 15.75C79.75 15.94 79.74 16.14 79.7 16.34C79.67 16.54 79.65 16.73 79.65 16.94C79.65 17.13 79.67 17.31 79.69 17.48C79.73 17.64 79.84 17.77 80.03 17.87C80.07 17.89 80.11 17.94 80.15 18.03C80.19 18.11 80.23 18.2 80.27 18.31C80.33 18.4 80.38 18.5 80.43 18.6C80.48 18.69 80.53 18.76 80.58 18.8C80.68 18.89 80.79 18.97 80.91 19.03L81.26 19.21C81.39 19.26 81.51 19.32 81.62 19.38C81.74 19.44 81.84 19.53 81.93 19.64C82.01 19.73 82.11 19.81 82.23 19.89C82.34 19.96 82.46 20.03 82.57 20.12C82.69 20.19 82.79 20.28 82.87 20.37C82.96 20.46 83 20.58 83 20.71C83 20.6 83.02 20.52 83.05 20.45C83.06 20.47 83.06 20.51 83.06 20.56C83.06 20.63 83.05 20.68 83.01 20.71C83.04 20.69 83.07 20.65 83.1 20.59L83.2 20.41C83.24 20.35 83.27 20.3 83.3 20.26C83.34 20.22 83.38 20.19 83.42 20.19C83.48 20.19 83.53 20.22 83.58 20.26C83.63 20.3 83.66 20.35 83.66 20.42Q83.66 20.5 83.64 20.57Q83.63 20.62 83.61 20.66C83.57 20.74 83.55 20.82 83.54 20.9C83.63 20.9 83.71 20.89 83.8 20.85C83.89 20.81 83.98 20.76 84.05 20.7C84.13 20.64 84.19 20.57 84.23 20.5C84.28 20.41 84.3 20.33 84.3 20.23C84.3 20.12 84.27 20.05 84.2 20.03C84.14 20 84.07 19.98 83.98 19.98C83.91 19.98 83.84 19.98 83.77 19.99C83.71 20 83.65 20 83.58 20L83.54 20C83.59 19.88 83.65 19.77 83.73 19.69C83.82 19.6 83.92 19.54 84.03 19.48C84.14 19.43 84.25 19.38 84.37 19.34C84.49 19.3 84.6 19.26 84.71 19.22C84.89 19.15 85.03 19.06 85.14 18.95C85.25 18.83 85.35 18.71 85.45 18.58L85.72 18.2C85.82 18.07 85.93 17.95 86.07 17.84C86.08 17.78 86.08 17.72 86.08 17.67L86.08 17.52C86.08 17.34 86.07 17.17 86.05 17C86.05 16.82 86.04 16.65 86.04 16.47C86.04 16.27 86.07 16.08 86.12 15.88C86.18 15.69 86.21 15.5 86.21 15.3C86.21 15.13 86.19 14.97 86.14 14.82C86.1 14.66 86.08 14.49 86.08 14.33Q86.08 14.17 86.11 14.02Q86.12 13.95 86.14 13.88C86.19 13.73 86.21 13.58 86.21 13.43C86.21 13.18 86.19 12.94 86.14 12.72Q86.08 12.36 86.08 12.01C86.08 11.69 86.1 11.37 86.16 11.07C86.21 10.76 86.24 10.46 86.24 10.14C86.24 9.74 86.21 9.34 86.13 8.95C86.06 8.56 86.03 8.17 86.03 7.76L86.03 7.53C86.04 7.43 86.05 7.33 86.07 7.24C86.09 7.14 86.13 7.05 86.17 6.99C86.21 6.91 86.27 6.87 86.36 6.87C86.28 6.86 86.19 6.81 86.07 6.72C85.96 6.62 85.85 6.51 85.74 6.39C85.64 6.26 85.54 6.14 85.46 6.02C85.38 5.9 85.34 5.8 85.34 5.73L85.22 5.76L85.1 5.76C84.99 5.76 84.87 5.74 84.76 5.69L84.46 5.57C84.36 5.52 84.25 5.47 84.14 5.43C84.03 5.39 83.91 5.36 83.79 5.36L83.72 5.36C83.69 5.15 83.63 4.95 83.56 4.76C83.49 4.56 83.46 4.36 83.46 4.14C83.46 3.97 83.5 3.83 83.58 3.73C83.68 3.63 83.79 3.55 83.92 3.5C84.06 3.44 84.2 3.4 84.36 3.39C84.52 3.37 84.66 3.36 84.79 3.36C85.02 3.36 85.26 3.37 85.48 3.4C85.71 3.43 85.94 3.44 86.18 3.44C86.36 3.44 86.52 3.4 86.68 3.32C86.83 3.24 86.99 3.2 87.16 3.2C87.25 3.2 87.35 3.22 87.45 3.26Q87.6 3.31 87.75 3.39L88.08 3.54C88.19 3.58 88.3 3.61 88.4 3.63C88.56 3.65 88.73 3.67 88.91 3.67C89.09 3.67 89.27 3.67 89.45 3.69C89.63 3.71 89.8 3.74 89.96 3.79C90.12 3.84 90.27 3.92 90.4 4.03C90.47 4.09 90.53 4.16 90.58 4.24C90.64 4.31 90.67 4.4 90.67 4.49ZM122.7 13.05C122.7 13.1 122.69 13.17 122.67 13.27C122.65 13.37 122.63 13.46 122.6 13.55C122.56 13.65 122.52 13.73 122.47 13.81C122.42 13.87 122.36 13.91 122.29 13.91C122.26 13.91 122.23 13.9 122.2 13.89C122.18 13.89 122.15 13.88 122.11 13.88C122.05 13.88 122 13.91 121.95 13.97C121.91 14.02 121.86 14.08 121.8 14.16C121.75 14.23 121.68 14.29 121.61 14.35C121.54 14.4 121.45 14.43 121.34 14.43C121.3 14.43 121.24 14.42 121.15 14.4C121.18 14.57 121.21 14.74 121.23 14.91C121.24 15.08 121.25 15.25 121.25 15.42C121.25 15.69 121.24 15.95 121.2 16.21C121.17 16.47 121.13 16.73 121.09 16.99Q121.02 17.38 120.97 17.77C120.94 18.04 120.92 18.3 120.92 18.56C120.92 18.87 120.94 19.18 120.99 19.48C121.04 19.79 121.06 20.1 121.06 20.41C121.06 20.54 121.05 20.69 121.02 20.84C121 20.98 120.95 21.12 120.88 21.25C120.83 21.37 120.74 21.48 120.63 21.56C120.52 21.65 120.39 21.69 120.23 21.69C119.99 21.69 119.8 21.62 119.67 21.47C119.54 21.32 119.43 21.16 119.34 20.99C119.25 20.82 119.17 20.65 119.1 20.51Q119.02 20.34 118.9 20.3Q118.86 20.28 118.82 20.28C118.76 20.28 118.68 20.32 118.59 20.38C118.51 20.44 118.41 20.52 118.3 20.6C118.19 20.68 118.07 20.76 117.93 20.84C117.8 20.92 117.67 20.97 117.54 20.99C117.38 21.03 117.27 21.07 117.21 21.13L117.03 21.31C116.97 21.36 116.88 21.41 116.77 21.45C116.66 21.49 116.46 21.51 116.18 21.51C116 21.51 115.81 21.5 115.62 21.49C115.45 21.47 115.27 21.46 115.08 21.46C114.94 21.46 114.81 21.47 114.67 21.49C114.55 21.5 114.42 21.51 114.28 21.51C114.07 21.51 113.9 21.5 113.76 21.46C113.63 21.42 113.5 21.37 113.39 21.31C113.29 21.25 113.18 21.19 113.06 21.13C112.95 21.06 112.81 21.01 112.63 20.95C112.5 20.91 112.39 20.88 112.3 20.85C112.22 20.82 112.14 20.79 112.08 20.75C112.01 20.71 111.94 20.66 111.87 20.61Q111.77 20.52 111.61 20.38C111.54 20.33 111.46 20.28 111.38 20.23C111.29 20.18 111.21 20.13 111.14 20.08C111.06 20.02 110.99 19.96 110.93 19.89C110.88 19.82 110.85 19.74 110.85 19.64C110.84 19.56 110.82 19.51 110.81 19.47C110.79 19.44 110.77 19.41 110.73 19.4Q110.69 19.37 110.63 19.36C110.6 19.34 110.55 19.32 110.49 19.28C110.39 19.13 110.31 18.97 110.26 18.81C110.21 18.65 110.16 18.5 110.11 18.34C110.06 18.18 110 18.03 109.92 17.89C109.84 17.74 109.73 17.6 109.58 17.47Q109.62 17.34 109.62 17.19C109.62 17.01 109.58 16.84 109.52 16.68C109.45 16.51 109.37 16.35 109.29 16.19C109.21 16.02 109.14 15.85 109.07 15.68C109 15.5 108.97 15.32 108.97 15.12C108.97 15.01 108.98 14.89 109 14.77C109.02 14.65 109.03 14.53 109.03 14.41C109.03 14.25 109.01 14.1 108.97 13.95C108.94 13.79 108.9 13.65 108.86 13.5L108.73 13.05C108.7 12.89 108.68 12.74 108.68 12.58L108.68 12.42C108.69 12.37 108.7 12.31 108.7 12.26C108.75 11.96 108.79 11.65 108.82 11.33C108.84 11.02 108.87 10.71 108.89 10.41C108.92 10.1 108.95 9.79 108.98 9.48C109.02 9.17 109.07 8.86 109.13 8.56C109.2 8.26 109.26 7.97 109.31 7.68C109.37 7.4 109.4 7.11 109.4 6.81C109.47 6.72 109.56 6.62 109.67 6.52C109.79 6.42 109.9 6.32 110.01 6.21C110.13 6.1 110.23 5.99 110.31 5.88C110.41 5.77 110.47 5.65 110.49 5.54C110.52 5.43 110.58 5.3 110.69 5.14C110.81 4.98 110.94 4.82 111.09 4.66C111.24 4.49 111.39 4.36 111.54 4.24C111.7 4.12 111.84 4.05 111.95 4.03C112 4.03 112.05 4.02 112.11 4.02C112.18 4.02 112.24 4.01 112.29 4C112.35 3.98 112.4 3.95 112.44 3.92C112.49 3.89 112.51 3.83 112.51 3.76C112.51 3.7 112.49 3.63 112.47 3.57C112.92 3.52 113.38 3.45 113.82 3.35C114.27 3.25 114.72 3.2 115.18 3.2C115.28 3.2 115.44 3.2 115.66 3.21C115.88 3.22 116.1 3.25 116.32 3.3C116.55 3.34 116.75 3.41 116.92 3.5C117.09 3.59 117.17 3.7 117.17 3.86L117.17 3.92C117.2 3.91 117.22 3.91 117.25 3.91L117.34 3.91C117.47 3.91 117.6 3.93 117.73 3.98C117.86 4.03 117.99 4.06 118.12 4.06C118.26 4.06 118.4 4.06 118.54 4.05C118.69 4.03 118.84 4 118.98 3.97C119.14 3.93 119.27 3.87 119.39 3.81C119.52 3.74 119.62 3.65 119.71 3.55C119.89 3.55 120.04 3.65 120.16 3.83C120.28 4.01 120.37 4.22 120.44 4.46C120.51 4.71 120.55 4.96 120.58 5.21Q120.63 5.58 120.63 5.78Q120.63 6.09 120.58 6.39C120.55 6.59 120.5 6.79 120.43 6.99C120.44 7.1 120.48 7.19 120.53 7.28L120.71 7.53C120.77 7.61 120.83 7.69 120.88 7.79C120.94 7.87 120.96 7.97 120.96 8.08C120.9 8.23 120.86 8.45 120.85 8.74C120.84 9.02 120.81 9.3 120.77 9.59C120.74 9.86 120.66 10.11 120.55 10.32Q120.49 10.45 120.38 10.53Q120.24 10.62 120.04 10.62Q119.89 10.62 119.76 10.57Q119.68 10.53 119.6 10.46C119.49 10.34 119.4 10.21 119.34 10.07L119.36 10.08C119.47 10.08 119.53 10.03 119.53 9.93C119.53 9.9 119.5 9.87 119.44 9.83C119.39 9.78 119.33 9.74 119.26 9.7C119.19 9.65 119.13 9.6 119.06 9.56C118.99 9.51 118.94 9.46 118.91 9.42C118.84 9.34 118.78 9.23 118.72 9.09C118.66 8.96 118.61 8.81 118.56 8.66C118.52 8.5 118.49 8.34 118.46 8.19C118.44 8.03 118.43 7.88 118.43 7.75L118.43 7.63C118.43 7.6 118.43 7.57 118.44 7.53L118.43 7.54C118.4 7.54 118.35 7.48 118.26 7.38C118.18 7.28 118.1 7.17 117.99 7.05C117.9 6.92 117.81 6.81 117.72 6.7C117.63 6.58 117.57 6.5 117.54 6.45C117.37 6.29 117.19 6.13 116.99 6C116.8 5.86 116.62 5.71 116.45 5.54C116.38 5.58 116.31 5.62 116.23 5.66C116.17 5.68 116.09 5.69 116.02 5.69C115.95 5.69 115.89 5.68 115.85 5.66L115.73 5.55C115.68 5.51 115.64 5.47 115.59 5.44C115.54 5.41 115.47 5.39 115.38 5.39C115.2 5.39 115.02 5.41 114.84 5.45Q114.59 5.52 114.31 5.52C114.11 5.52 113.92 5.48 113.72 5.4C113.54 5.33 113.34 5.29 113.14 5.29C113.12 5.29 113.1 5.29 113.06 5.3C113.04 5.31 113.02 5.32 113 5.33Q113.01 5.4 113.03 5.46L113.03 5.46Q113.04 5.5 113.06 5.54C113.1 5.61 113.11 5.68 113.11 5.76C113.11 5.88 113.06 5.99 112.96 6.1C112.87 6.21 112.76 6.32 112.62 6.42C112.49 6.52 112.36 6.62 112.23 6.72C112.1 6.81 112 6.9 111.94 6.99C111.84 7.11 111.77 7.23 111.71 7.37L111.56 7.77Q111.48 7.96 111.35 8.14C111.28 8.26 111.17 8.36 111.02 8.43C111.09 8.61 111.12 8.78 111.12 8.94C111.12 9.06 111.12 9.17 111.1 9.28C111.08 9.38 111.07 9.49 111.07 9.61C111.07 9.88 111.1 10.15 111.14 10.42C111.18 10.68 111.2 10.95 111.2 11.22C111.2 11.44 111.18 11.66 111.14 11.88C111.1 12.09 111.06 12.31 111.01 12.53C110.96 12.74 110.91 12.95 110.87 13.17C110.84 13.38 110.82 13.6 110.82 13.82C110.82 14.01 110.84 14.2 110.88 14.38C110.93 14.55 110.99 14.73 111.05 14.9C111.11 15.07 111.16 15.23 111.2 15.38C111.25 15.53 111.28 15.67 111.28 15.81C111.28 15.9 111.27 15.99 111.25 16.09C111.23 16.18 111.23 16.27 111.23 16.37C111.23 16.73 111.31 17.04 111.47 17.29C111.63 17.54 111.81 17.77 112.01 17.99C112.22 18.21 112.43 18.43 112.62 18.66C112.81 18.88 112.95 19.15 113.01 19.46C113.14 19.43 113.26 19.42 113.38 19.42C113.53 19.42 113.69 19.44 113.84 19.47C113.99 19.51 114.14 19.55 114.28 19.6C114.42 19.64 114.57 19.68 114.72 19.71C114.88 19.75 115.03 19.76 115.18 19.76C115.5 19.76 115.83 19.7 116.16 19.57C116.49 19.44 116.8 19.26 117.08 19.04C117.37 18.82 117.62 18.57 117.83 18.28C118.04 17.99 118.18 17.69 118.26 17.38C118.33 17.08 118.43 16.79 118.55 16.52C118.6 16.42 118.65 16.35 118.7 16.33C118.75 16.3 118.8 16.29 118.84 16.28C118.89 16.27 118.92 16.26 118.95 16.25Q118.95 16.25 118.95 16.25Q118.98 16.23 118.98 16.16C118.98 16.11 118.95 16.07 118.89 16.02C118.84 15.98 118.82 15.93 118.82 15.86C118.82 15.83 118.84 15.8 118.87 15.77C118.9 15.73 118.94 15.68 118.98 15.63C119.03 15.58 119.08 15.52 119.11 15.45C119.14 15.38 119.16 15.3 119.16 15.21C119.16 15.04 119.11 14.89 119.01 14.78C118.91 14.67 118.78 14.58 118.63 14.5C118.48 14.42 118.31 14.35 118.13 14.29C117.96 14.22 117.8 14.14 117.65 14.05C117.5 13.95 117.37 13.84 117.27 13.7C117.17 13.56 117.12 13.38 117.12 13.15C117.12 12.96 117.17 12.81 117.26 12.69C117.36 12.56 117.48 12.46 117.63 12.39C117.78 12.31 117.94 12.26 118.11 12.22C118.28 12.18 118.44 12.15 118.59 12.12C118.69 12.1 118.8 12.07 118.92 12.03C119.04 11.98 119.16 11.93 119.27 11.89C119.39 11.84 119.5 11.8 119.6 11.77C119.71 11.72 119.81 11.7 119.9 11.7C120.01 11.7 120.13 11.73 120.25 11.78C120.37 11.82 120.49 11.85 120.61 11.87C120.77 11.89 120.96 11.93 121.2 11.97C121.45 12.01 121.68 12.07 121.9 12.16C122.12 12.24 122.3 12.36 122.46 12.5C122.62 12.64 122.7 12.82 122.7 13.05ZM107.15 19.62C107.15 19.7 107.14 19.8 107.13 19.93C107.12 20.05 107.08 20.14 107.01 20.18C106.92 20.22 106.87 20.3 106.84 20.4C106.82 20.5 106.82 20.6 106.82 20.7C106.82 20.8 106.81 20.9 106.8 20.98C106.79 21.06 106.76 21.09 106.7 21.09C106.66 21.09 106.63 21.09 106.6 21.07Q106.59 21.06 106.58 21.05L106.58 21.05Q106.55 21.03 106.5 21.03C106.46 21.03 106.41 21.05 106.37 21.09C106.33 21.14 106.31 21.18 106.31 21.22C106.31 21.26 106.32 21.3 106.35 21.32C106.38 21.34 106.4 21.37 106.4 21.41C106.4 21.44 106.33 21.49 106.21 21.54C106.08 21.58 105.94 21.62 105.78 21.66C105.62 21.72 105.46 21.75 105.31 21.78C105.16 21.81 105.05 21.83 105 21.83C104.7 21.83 104.39 21.77 104.09 21.66C103.79 21.55 103.49 21.45 103.2 21.36C102.86 21.24 102.6 21.05 102.43 20.78C102.27 20.51 102.15 20.2 102.08 19.86C102 19.53 101.94 19.18 101.9 18.83C101.86 18.47 101.8 18.15 101.69 17.87C101.65 17.75 101.63 17.64 101.63 17.56C101.63 17.47 101.64 17.41 101.66 17.36C101.68 17.3 101.71 17.25 101.73 17.22C101.77 17.17 101.79 17.14 101.81 17.11C101.83 17.08 101.85 17.05 101.85 17.01C101.85 16.91 101.82 16.81 101.76 16.71C101.7 16.61 101.67 16.47 101.67 16.3L101.67 16.04C101.68 15.94 101.68 15.85 101.68 15.76C101.68 15.45 101.65 15.19 101.59 14.98C101.54 14.78 101.47 14.6 101.37 14.43C101.27 14.26 101.16 14.09 101.02 13.92C100.9 13.75 100.75 13.55 100.59 13.31C100.52 13.33 100.44 13.34 100.35 13.34L100.11 13.34C99.94 13.34 99.77 13.33 99.6 13.31Q99.36 13.29 99.11 13.29C98.93 13.29 98.75 13.3 98.56 13.34C98.39 13.37 98.2 13.39 98.02 13.39C97.9 13.39 97.78 13.37 97.66 13.34C97.55 13.29 97.43 13.27 97.31 13.27C97.17 13.27 97.02 13.3 96.88 13.36C96.73 13.41 96.6 13.49 96.49 13.59C96.37 13.68 96.27 13.8 96.19 13.93C96.13 14.06 96.09 14.2 96.09 14.35L96.09 14.76C96.09 15.49 96.03 16.21 95.9 16.92L95.85 17.25C95.83 17.36 95.83 17.46 95.83 17.58C95.83 17.93 95.89 18.21 96.03 18.42C96.17 18.63 96.35 18.8 96.55 18.94C96.75 19.07 96.98 19.17 97.22 19.26C97.47 19.34 97.69 19.43 97.89 19.52C98.09 19.61 98.26 19.71 98.4 19.84C98.54 19.97 98.61 20.14 98.61 20.36C98.61 20.44 98.6 20.52 98.56 20.6C98.54 20.67 98.5 20.73 98.46 20.8C98.35 20.98 98.25 21.12 98.15 21.21C98.05 21.29 97.95 21.36 97.83 21.41C97.72 21.46 97.6 21.5 97.46 21.52C97.33 21.55 97.17 21.58 96.98 21.63C96.84 21.66 96.68 21.68 96.52 21.69C96.37 21.71 96.22 21.72 96.07 21.72C95.83 21.72 95.6 21.69 95.37 21.63C95.14 21.58 94.91 21.55 94.67 21.55C94.5 21.55 94.31 21.57 94.13 21.6C93.95 21.63 93.77 21.66 93.6 21.69C93.42 21.73 93.24 21.77 93.06 21.79C92.89 21.82 92.71 21.84 92.53 21.84C92.41 21.84 92.28 21.83 92.14 21.8C92 21.78 91.88 21.73 91.76 21.66C91.64 21.61 91.54 21.52 91.45 21.42C91.38 21.32 91.34 21.2 91.34 21.06C91.34 20.94 91.37 20.83 91.43 20.74C91.49 20.65 91.56 20.57 91.66 20.5C91.76 20.43 91.86 20.38 91.97 20.33C92.08 20.29 92.19 20.27 92.29 20.26C92.38 20.25 92.46 20.24 92.52 20.24C92.59 20.24 92.64 20.24 92.68 20.22C92.73 20.2 92.78 20.18 92.84 20.14C92.89 20.11 92.94 20.06 93.01 19.99C93.05 19.95 93.09 19.92 93.13 19.89C93.17 19.86 93.22 19.85 93.28 19.85C93.32 19.85 93.36 19.86 93.41 19.86C93.45 19.87 93.49 19.88 93.53 19.88C93.6 19.88 93.67 19.86 93.73 19.81C93.91 19.71 94.04 19.58 94.12 19.42C94.19 19.26 94.24 19.09 94.27 18.9C94.29 18.71 94.31 18.51 94.31 18.31C94.31 18.1 94.34 17.92 94.38 17.75C94.42 17.56 94.44 17.39 94.44 17.23C94.44 16.93 94.41 16.64 94.33 16.35Q94.28 16.15 94.26 15.95Q94.23 15.72 94.23 15.48C94.23 15.12 94.25 14.77 94.31 14.41C94.36 14.06 94.38 13.7 94.38 13.35C94.38 13.26 94.38 13.17 94.37 13.08L94.37 12.82C94.37 12.21 94.41 11.61 94.48 11.02C94.56 10.43 94.6 9.83 94.6 9.22C94.6 9.05 94.59 8.88 94.58 8.72C94.58 8.56 94.56 8.4 94.55 8.23C94.53 8.09 94.51 7.93 94.5 7.73C94.48 7.53 94.45 7.33 94.42 7.11C94.39 6.9 94.34 6.69 94.28 6.48C94.23 6.27 94.15 6.08 94.05 5.92C93.96 5.75 93.84 5.62 93.7 5.52C93.56 5.41 93.4 5.35 93.2 5.35C93.16 5.35 93.11 5.36 93.06 5.36C93.02 5.37 92.98 5.38 92.94 5.38C92.84 5.38 92.77 5.35 92.71 5.3C92.65 5.24 92.6 5.17 92.57 5.1C92.54 5.01 92.51 4.93 92.49 4.83C92.48 4.74 92.48 4.66 92.48 4.59C92.48 4.3 92.55 4.09 92.7 3.96C92.85 3.82 93.03 3.73 93.24 3.68C93.46 3.63 93.69 3.61 93.94 3.62C94.19 3.62 94.42 3.61 94.61 3.59C94.83 3.57 95.04 3.54 95.26 3.48C95.48 3.42 95.7 3.39 95.93 3.39C96.26 3.39 96.58 3.43 96.9 3.51C97.22 3.6 97.55 3.64 97.88 3.64C98.15 3.64 98.41 3.62 98.67 3.58C98.92 3.53 99.17 3.46 99.43 3.37C99.55 3.33 99.67 3.31 99.77 3.31C100.1 3.31 100.42 3.35 100.74 3.44C101.07 3.52 101.39 3.57 101.71 3.59C101.93 3.61 102.16 3.65 102.39 3.72C102.63 3.78 102.85 3.86 103.05 3.98C103.26 4.09 103.44 4.24 103.6 4.41C103.75 4.59 103.85 4.8 103.89 5.04C103.91 5.18 103.97 5.32 104.07 5.45C104.16 5.58 104.26 5.7 104.36 5.81C104.47 5.91 104.56 6.01 104.64 6.1C104.72 6.18 104.76 6.26 104.76 6.32C104.76 6.37 104.73 6.42 104.67 6.45C104.62 6.48 104.6 6.53 104.6 6.59C104.6 6.64 104.62 6.68 104.67 6.73C104.73 6.78 104.8 6.84 104.86 6.91C104.93 6.98 104.99 7.05 105.04 7.14C105.1 7.22 105.13 7.3 105.13 7.39C105.13 7.52 105.09 7.63 105 7.73C104.93 7.83 104.89 7.94 104.89 8.06L104.91 8.1L105.09 8.05L105.12 8.08C105.14 8.19 105.16 8.3 105.16 8.42C105.16 8.45 105.16 8.48 105.16 8.51L105.16 8.9C105.16 9.06 105.15 9.24 105.14 9.43C105.13 9.63 105.11 9.82 105.08 10C105.05 10.19 104.99 10.36 104.93 10.52C104.86 10.68 104.76 10.81 104.64 10.9C104.56 10.96 104.48 11.01 104.39 11.04C104.32 11.07 104.24 11.1 104.17 11.14C104.09 11.18 104.02 11.22 103.96 11.28C103.9 11.34 103.86 11.42 103.82 11.52C103.78 11.67 103.71 11.8 103.61 11.93C103.51 12.06 103.4 12.18 103.29 12.31C103.19 12.43 103.1 12.55 103.01 12.68C102.94 12.8 102.9 12.94 102.9 13.1Q102.9 13.33 102.96 13.54Q103 13.66 103.06 13.78C103.18 13.99 103.29 14.21 103.38 14.43C103.47 14.66 103.54 14.89 103.58 15.12C103.63 15.35 103.66 15.58 103.67 15.82C103.7 16.06 103.71 16.29 103.72 16.53C103.74 16.77 103.77 17 103.8 17.24C103.82 17.34 103.85 17.51 103.91 17.75C103.98 17.98 104.06 18.21 104.15 18.45Q104.29 18.8 104.47 19.07C104.59 19.24 104.71 19.33 104.84 19.33C104.95 19.33 105.04 19.27 105.1 19.15C105.17 19.04 105.24 18.9 105.29 18.75C105.36 18.6 105.43 18.45 105.51 18.31C105.59 18.16 105.7 18.06 105.84 18.01C106.1 18.04 106.32 18.09 106.49 18.17C106.66 18.24 106.8 18.35 106.89 18.48C106.98 18.61 107.05 18.77 107.08 18.96C107.12 19.15 107.15 19.37 107.15 19.62ZM156.22 19.62Q156.22 19.74 156.21 19.93C156.2 20.05 156.16 20.14 156.08 20.18C156 20.22 155.94 20.3 155.92 20.4Q155.89 20.54 155.89 20.69L155.89 20.7C155.89 20.8 155.89 20.9 155.88 20.98Q155.87 21.05 155.83 21.08Q155.81 21.09 155.78 21.09C155.74 21.09 155.7 21.09 155.68 21.07Q155.67 21.06 155.66 21.05Q155.62 21.03 155.57 21.03C155.53 21.03 155.49 21.05 155.45 21.09C155.41 21.14 155.38 21.18 155.38 21.22C155.38 21.26 155.4 21.3 155.42 21.32C155.46 21.34 155.47 21.37 155.47 21.41C155.47 21.44 155.41 21.49 155.28 21.54C155.16 21.58 155.01 21.62 154.85 21.66C154.69 21.72 154.53 21.75 154.38 21.78C154.23 21.81 154.13 21.83 154.08 21.83C153.77 21.83 153.47 21.77 153.17 21.66C152.86 21.55 152.57 21.45 152.28 21.36C151.93 21.24 151.67 21.05 151.51 20.78C151.35 20.51 151.23 20.2 151.15 19.86C151.08 19.53 151.02 19.18 150.97 18.83C150.94 18.47 150.87 18.15 150.77 17.87C150.73 17.75 150.71 17.64 150.71 17.56C150.71 17.47 150.72 17.41 150.73 17.36C150.76 17.3 150.78 17.25 150.81 17.22C150.84 17.17 150.87 17.14 150.89 17.11C150.91 17.08 150.92 17.05 150.92 17.01C150.92 16.91 150.89 16.81 150.83 16.71C150.78 16.61 150.75 16.47 150.75 16.3L150.75 16.04C150.75 15.94 150.76 15.85 150.76 15.76C150.76 15.45 150.73 15.19 150.67 14.98C150.62 14.78 150.54 14.6 150.44 14.43C150.35 14.26 150.23 14.09 150.1 13.92C149.97 13.75 149.83 13.55 149.67 13.31C149.59 13.33 149.51 13.34 149.43 13.34L149.19 13.34C149.02 13.34 148.85 13.33 148.68 13.31C148.52 13.29 148.35 13.29 148.19 13.29C148.01 13.29 147.83 13.3 147.64 13.34Q147.37 13.39 147.1 13.39C146.98 13.39 146.86 13.37 146.74 13.34C146.62 13.29 146.5 13.27 146.39 13.27C146.24 13.27 146.1 13.3 145.95 13.36C145.81 13.41 145.68 13.49 145.56 13.59C145.44 13.68 145.35 13.8 145.27 13.93C145.2 14.06 145.17 14.2 145.17 14.35L145.17 14.76Q145.17 15.86 144.98 16.92L144.93 17.25C144.91 17.36 144.9 17.46 144.9 17.58Q144.9 18.1 145.11 18.42Q145.28 18.68 145.52 18.86Q145.57 18.9 145.63 18.94C145.83 19.07 146.05 19.17 146.3 19.26C146.54 19.34 146.77 19.43 146.97 19.52C147.17 19.61 147.34 19.71 147.48 19.84C147.62 19.97 147.69 20.14 147.69 20.36C147.69 20.44 147.67 20.52 147.64 20.6C147.62 20.67 147.58 20.73 147.54 20.8C147.43 20.98 147.32 21.12 147.22 21.21C147.13 21.29 147.02 21.36 146.91 21.41C146.8 21.46 146.67 21.5 146.54 21.52C146.4 21.55 146.24 21.58 146.06 21.63C145.91 21.66 145.76 21.68 145.6 21.69C145.45 21.71 145.3 21.72 145.14 21.72C144.91 21.72 144.67 21.69 144.45 21.63C144.22 21.58 143.99 21.55 143.75 21.55C143.57 21.55 143.39 21.57 143.2 21.6C143.03 21.63 142.85 21.66 142.67 21.69C142.49 21.73 142.32 21.77 142.14 21.79Q141.87 21.84 141.61 21.84C141.49 21.84 141.36 21.83 141.21 21.8C141.08 21.78 140.95 21.73 140.83 21.66C140.72 21.61 140.61 21.52 140.53 21.42C140.45 21.32 140.42 21.2 140.42 21.06Q140.42 20.93 140.46 20.82Q140.48 20.78 140.5 20.74C140.56 20.65 140.64 20.57 140.73 20.5C140.83 20.43 140.94 20.38 141.05 20.33C141.16 20.29 141.27 20.27 141.37 20.26Q141.5 20.24 141.59 20.24C141.66 20.24 141.72 20.24 141.76 20.22C141.81 20.2 141.86 20.18 141.91 20.14C141.96 20.11 142.02 20.06 142.09 19.99C142.13 19.95 142.17 19.92 142.2 19.89C142.25 19.86 142.3 19.85 142.36 19.85C142.4 19.85 142.44 19.86 142.48 19.86Q142.54 19.88 142.61 19.88L142.61 19.88L142.61 19.88C142.68 19.88 142.74 19.86 142.81 19.81C142.99 19.71 143.12 19.58 143.19 19.42C143.27 19.26 143.32 19.09 143.34 18.9C143.37 18.71 143.38 18.51 143.38 18.31C143.39 18.1 143.42 17.92 143.46 17.75C143.5 17.56 143.52 17.39 143.52 17.23C143.52 16.93 143.48 16.64 143.41 16.35Q143.36 16.15 143.34 15.95Q143.31 15.72 143.31 15.48C143.31 15.12 143.33 14.77 143.38 14.41C143.43 14.06 143.46 13.7 143.46 13.35C143.46 13.26 143.45 13.17 143.45 13.08L143.45 12.82Q143.45 11.9 143.56 11.02Q143.67 10.13 143.67 9.22C143.67 9.05 143.67 8.88 143.66 8.72C143.65 8.56 143.64 8.4 143.62 8.23C143.61 8.09 143.59 7.93 143.57 7.73C143.55 7.53 143.53 7.33 143.5 7.11C143.46 6.9 143.42 6.69 143.36 6.48Q143.28 6.16 143.13 5.92C143.03 5.75 142.92 5.62 142.77 5.52C142.64 5.41 142.47 5.35 142.28 5.35C142.24 5.35 142.19 5.36 142.14 5.36Q142.08 5.38 142.01 5.38C141.92 5.38 141.84 5.35 141.78 5.3C141.73 5.24 141.68 5.17 141.64 5.1C141.61 5.01 141.59 4.93 141.57 4.83C141.56 4.74 141.56 4.66 141.56 4.59C141.56 4.3 141.63 4.09 141.77 3.96C141.92 3.82 142.11 3.73 142.32 3.68C142.54 3.63 142.77 3.61 143.01 3.62C143.27 3.62 143.49 3.61 143.69 3.59C143.91 3.57 144.12 3.54 144.33 3.48C144.55 3.42 144.78 3.39 145 3.39C145.33 3.39 145.66 3.43 145.98 3.51C146.3 3.6 146.63 3.64 146.96 3.64C147.23 3.64 147.49 3.62 147.74 3.58C148 3.53 148.25 3.46 148.5 3.37C148.63 3.33 148.74 3.31 148.84 3.31C149.17 3.31 149.5 3.35 149.82 3.44C150.14 3.52 150.46 3.57 150.78 3.59C151 3.61 151.23 3.65 151.47 3.72Q151.81 3.8 152.11 3.97L152.11 3.97Q152.12 3.98 152.13 3.98C152.34 4.09 152.52 4.24 152.67 4.41C152.82 4.59 152.92 4.8 152.96 5.04C152.99 5.18 153.05 5.32 153.14 5.45C153.23 5.58 153.33 5.7 153.43 5.81C153.54 5.91 153.64 6.01 153.71 6.1C153.8 6.18 153.84 6.26 153.84 6.32C153.84 6.37 153.81 6.42 153.75 6.45C153.7 6.48 153.67 6.53 153.67 6.59C153.67 6.64 153.7 6.68 153.75 6.73Q153.84 6.81 153.94 6.91C154.01 6.98 154.07 7.05 154.12 7.14C154.18 7.22 154.21 7.3 154.21 7.39C154.21 7.52 154.16 7.63 154.08 7.73C154 7.83 153.96 7.94 153.96 8.06L153.99 8.1L154.17 8.05L154.19 8.08C154.22 8.19 154.23 8.3 154.23 8.42C154.23 8.45 154.23 8.48 154.23 8.51L154.23 8.9C154.23 9.06 154.23 9.24 154.22 9.43C154.21 9.63 154.19 9.82 154.16 10C154.12 10.19 154.07 10.36 154 10.52C153.94 10.68 153.84 10.81 153.71 10.9C153.64 10.96 153.56 11.01 153.47 11.04C153.39 11.07 153.32 11.1 153.24 11.14Q153.19 11.17 153.14 11.2Q153.09 11.24 153.04 11.28C152.98 11.34 152.93 11.42 152.9 11.52C152.86 11.67 152.79 11.8 152.68 11.93C152.58 12.06 152.48 12.18 152.37 12.31C152.27 12.43 152.17 12.55 152.09 12.68C152.01 12.8 151.98 12.94 151.98 13.1C151.98 13.34 152.03 13.57 152.14 13.78C152.26 13.99 152.36 14.21 152.46 14.43C152.55 14.66 152.62 14.89 152.66 15.12C152.7 15.35 152.73 15.58 152.75 15.82C152.77 16.06 152.79 16.29 152.8 16.53C152.82 16.77 152.84 17 152.87 17.24C152.89 17.34 152.93 17.51 152.99 17.75C153.06 17.98 153.14 18.21 153.23 18.45C153.32 18.68 153.43 18.89 153.55 19.07C153.67 19.24 153.79 19.33 153.91 19.33C154.02 19.33 154.11 19.27 154.18 19.15C154.25 19.04 154.31 18.9 154.37 18.75C154.44 18.6 154.51 18.45 154.59 18.31Q154.69 18.13 154.84 18.05Q154.88 18.03 154.92 18.01C155.18 18.04 155.39 18.09 155.56 18.17C155.74 18.24 155.87 18.35 155.97 18.48C156.06 18.61 156.12 18.77 156.16 18.96C156.2 19.15 156.22 19.37 156.22 19.62ZM73.54 16.38L73.54 16.62Q73.55 16.69 73.55 16.76Q73.55 16.84 73.54 16.91C73.54 17 73.54 17.09 73.52 17.18C73.51 17.25 73.49 17.31 73.46 17.34C73.38 17.42 73.3 17.47 73.21 17.49C73.13 17.51 73.04 17.52 72.95 17.53Q72.82 17.53 72.68 17.56C72.6 17.57 72.51 17.6 72.43 17.65C72.45 17.73 72.48 17.79 72.54 17.81L72.75 17.86C72.82 17.87 72.89 17.9 72.94 17.94C73 17.97 73.02 18.04 73.02 18.15C73.02 18.33 73 18.48 72.94 18.6C72.89 18.71 72.82 18.81 72.75 18.9C72.67 18.99 72.59 19.07 72.52 19.17C72.44 19.26 72.38 19.38 72.34 19.52C72.29 19.67 72.23 19.78 72.15 19.85C72.07 19.92 71.99 19.97 71.9 20.02C71.81 20.05 71.72 20.09 71.63 20.13C71.54 20.17 71.45 20.25 71.36 20.36C71.27 20.46 71.2 20.51 71.14 20.51C71.11 20.51 71.08 20.51 71.05 20.5C71.01 20.49 70.97 20.49 70.92 20.49C70.88 20.49 70.84 20.5 70.79 20.54C70.76 20.56 70.74 20.6 70.74 20.64C70.74 20.65 70.75 20.66 70.77 20.66C70.78 20.66 70.79 20.66 70.79 20.67C70.79 20.67 70.78 20.67 70.78 20.68C70.68 20.77 70.5 20.88 70.24 21.01Q69.84 21.18 69.34 21.35C69 21.45 68.64 21.54 68.27 21.61C67.91 21.68 67.56 21.72 67.23 21.72C66.66 21.72 66.09 21.7 65.52 21.66C64.96 21.64 64.39 21.63 63.81 21.63L62.12 21.63C62.1 21.63 62.06 21.65 62.01 21.7C61.97 21.75 61.92 21.78 61.86 21.78C61.77 21.78 61.64 21.77 61.49 21.74C61.35 21.72 61.2 21.67 61.06 21.61C60.92 21.55 60.79 21.48 60.68 21.4C60.58 21.31 60.53 21.2 60.53 21.08C60.53 21.04 60.53 21.01 60.54 20.98C60.55 20.95 60.56 20.91 60.57 20.87C60.64 20.63 60.75 20.45 60.88 20.33C61.02 20.21 61.16 20.1 61.31 20.02L61.79 19.74C61.96 19.64 62.11 19.51 62.24 19.34C62.37 19.18 62.48 18.95 62.57 18.66C62.65 18.37 62.69 17.99 62.69 17.51C62.69 17.07 62.67 16.63 62.61 16.2Q62.53 15.56 62.53 14.9C62.54 14.08 62.56 13.28 62.58 12.49C62.61 11.69 62.64 10.89 62.64 10.08L62.66 8.09C62.66 7.88 62.65 7.63 62.63 7.35C62.62 7.08 62.58 6.81 62.5 6.56C62.44 6.29 62.32 6.07 62.16 5.9C62.01 5.71 61.79 5.61 61.5 5.58C61.36 5.57 61.2 5.53 61.01 5.47C60.82 5.4 60.65 5.31 60.48 5.2C60.32 5.08 60.18 4.95 60.06 4.81C59.94 4.66 59.88 4.51 59.88 4.34C59.88 4.19 59.92 4.08 60.01 3.98C60.09 3.88 60.19 3.8 60.31 3.74C60.43 3.67 60.56 3.63 60.69 3.6C60.84 3.57 60.97 3.55 61.09 3.55C61.36 3.55 61.62 3.58 61.88 3.64Q62.28 3.72 62.69 3.72C63.04 3.72 63.39 3.7 63.73 3.67C64.09 3.63 64.44 3.59 64.79 3.55C65.13 3.5 65.48 3.46 65.83 3.43C66.18 3.39 66.54 3.37 66.89 3.37C67.19 3.37 67.48 3.39 67.78 3.41L68.66 3.46C68.72 3.53 68.8 3.59 68.93 3.63C69.06 3.67 69.19 3.71 69.34 3.74C69.49 3.78 69.64 3.81 69.78 3.83C69.92 3.85 70.03 3.86 70.11 3.88C70.31 3.92 70.49 3.97 70.63 4.02C70.78 4.06 70.91 4.13 71.01 4.21C71.12 4.29 71.21 4.39 71.29 4.52C71.37 4.64 71.45 4.81 71.52 5.01C71.52 5.04 71.56 5.07 71.63 5.12C71.71 5.17 71.79 5.23 71.88 5.28C71.98 5.33 72.07 5.38 72.15 5.43C72.23 5.48 72.29 5.52 72.33 5.55C72.44 5.66 72.55 5.83 72.66 6.06C72.78 6.28 72.88 6.52 72.97 6.77C73.07 7.03 73.14 7.27 73.2 7.52C73.26 7.76 73.29 7.96 73.29 8.12C73.29 8.43 73.24 8.74 73.15 9.05C73.07 9.37 72.98 9.67 72.89 9.97C72.83 10.14 72.74 10.31 72.62 10.47C72.51 10.63 72.4 10.8 72.29 10.97C72.18 11.13 72.08 11.29 72 11.46C71.92 11.63 71.88 11.81 71.88 11.99C71.88 12.26 71.94 12.52 72.05 12.78C72.16 13.04 72.29 13.28 72.43 13.5C72.49 13.6 72.56 13.7 72.63 13.79C72.72 13.89 72.8 13.98 72.87 14.07C72.96 14.16 73.03 14.25 73.1 14.35C73.17 14.44 73.23 14.55 73.28 14.67C73.39 14.94 73.46 15.22 73.49 15.52C73.53 15.8 73.54 16.09 73.54 16.38ZM138.69 8.98C138.69 9.01 138.67 9.08 138.63 9.18C138.59 9.28 138.53 9.39 138.48 9.51C138.42 9.63 138.37 9.74 138.31 9.84C138.25 9.94 138.21 10.01 138.17 10.04L138.2 10.05C138.18 10.05 138.16 10.06 138.15 10.07L138.08 10.07C138.05 10.08 138.01 10.08 137.97 10.08L137.86 10.08L137.91 10.07C137.71 10.06 137.53 10.02 137.37 9.97C137.22 9.9 137.1 9.78 136.99 9.6C136.98 9.56 136.95 9.51 136.92 9.42C136.88 9.33 136.85 9.23 136.82 9.13C136.78 9.03 136.75 8.93 136.73 8.85C136.71 8.76 136.7 8.69 136.7 8.65C136.7 8.58 136.71 8.51 136.71 8.43C136.73 8.36 136.74 8.28 136.74 8.22Q136.74 7.89 136.69 7.57Q136.68 7.51 136.66 7.44C136.61 7.19 136.59 6.93 136.59 6.67C136.59 6.5 136.61 6.34 136.65 6.18C136.69 6.02 136.77 5.87 136.88 5.73L136.82 5.73C136.71 5.73 136.63 5.7 136.58 5.64C136.52 5.58 136.42 5.54 136.28 5.54C135.96 5.54 135.65 5.58 135.35 5.66C135.04 5.73 134.72 5.77 134.38 5.77L133.98 5.77C133.84 5.76 133.7 5.76 133.56 5.76C133.3 5.76 133.04 5.79 132.78 5.85Q132.41 5.94 132.05 5.94C132.03 5.94 132.01 5.93 132.01 5.92Q132.01 5.9 132.1 5.86C132.16 5.83 132.19 5.8 132.19 5.78C132.19 5.75 132.16 5.73 132.1 5.73L132 5.73C131.93 5.73 131.87 5.77 131.82 5.83C131.78 5.9 131.71 5.95 131.62 5.97Q131.43 6.02 131.21 6.02L130.8 6.02C130.71 6.02 130.59 6.02 130.43 6.01C130.27 6 130.11 5.99 129.95 5.96C129.79 5.93 129.64 5.88 129.5 5.82Q129.37 5.75 129.32 5.64Q129.29 5.59 129.29 5.54C129.19 5.57 129.13 5.61 129.1 5.68C129.07 5.74 129.05 5.8 129.02 5.87C129 5.94 128.97 6 128.93 6.06C128.89 6.11 128.81 6.14 128.68 6.15C128.44 6.17 128.29 6.24 128.22 6.38C128.16 6.51 128.12 6.67 128.12 6.84C128.12 6.93 128.13 7.02 128.13 7.11C128.14 7.21 128.15 7.3 128.15 7.39C128.15 7.73 128.14 8.07 128.12 8.41Q128.11 8.9 128.11 9.41L128.11 9.99C128.12 10.23 128.13 10.46 128.16 10.7C128.19 10.93 128.24 11.14 128.3 11.32C128.36 11.5 128.44 11.6 128.55 11.63Q128.65 11.65 128.77 11.66L129 11.66C129.29 11.66 129.58 11.63 129.86 11.56C130.14 11.5 130.44 11.46 130.73 11.46C130.85 11.46 130.96 11.48 131.06 11.51Q131.23 11.56 131.39 11.56C131.55 11.56 131.67 11.49 131.76 11.33C131.85 11.17 131.92 10.99 131.95 10.79C131.99 10.58 132.02 10.37 132.03 10.16C132.03 9.94 132.04 9.79 132.04 9.69C132.04 9.48 132.03 9.27 132.01 9.07C132 8.85 132 8.64 132 8.43L132.08 8.43C132.29 8.43 132.49 8.47 132.67 8.53C132.86 8.6 133.05 8.63 133.25 8.63C133.34 8.63 133.4 8.63 133.44 8.62C133.44 8.79 133.47 8.96 133.53 9.13C133.59 9.3 133.62 9.47 133.62 9.65C133.62 9.87 133.5 10.01 133.27 10.07C133.33 10.19 133.39 10.3 133.43 10.42C133.47 10.54 133.5 10.66 133.5 10.79C133.5 10.88 133.49 10.98 133.47 11.07C133.45 11.15 133.44 11.24 133.44 11.33C133.44 11.42 133.47 11.49 133.52 11.54Q133.59 11.58 133.6 11.64Q133.61 11.67 133.61 11.69C133.61 11.79 133.57 11.92 133.48 12.07C133.41 12.22 133.37 12.38 133.37 12.54C133.37 12.72 133.39 12.92 133.42 13.12C133.45 13.32 133.49 13.54 133.53 13.76C133.58 13.98 133.61 14.2 133.65 14.43C133.68 14.65 133.7 14.87 133.7 15.1C133.7 15.23 133.69 15.37 133.67 15.52C133.66 15.66 133.63 15.8 133.58 15.94C133.54 16.06 133.48 16.18 133.39 16.29Q133.28 16.46 133.09 16.57C132.93 16.55 132.79 16.51 132.68 16.43C132.57 16.35 132.48 16.25 132.41 16.14C132.34 16.02 132.28 15.89 132.24 15.76C132.21 15.61 132.18 15.47 132.16 15.33C132.13 15.11 132.11 14.9 132.11 14.72C132.11 14.53 132.07 14.38 131.99 14.25C131.91 14.11 131.76 14.01 131.53 13.93C131.31 13.86 130.96 13.82 130.49 13.82C130.36 13.82 130.16 13.83 129.91 13.86C129.66 13.88 129.42 13.93 129.17 14C128.93 14.06 128.71 14.14 128.53 14.26C128.35 14.38 128.26 14.53 128.26 14.71C128.26 14.81 128.27 14.91 128.29 15.01C128.31 15.1 128.32 15.2 128.32 15.3C128.32 15.39 128.32 15.47 128.31 15.56C128.3 15.64 128.3 15.73 128.3 15.82C128.3 16.05 128.31 16.28 128.34 16.51C128.36 16.73 128.38 16.95 128.38 17.18C128.38 17.42 128.34 17.66 128.27 17.9C128.21 18.14 128.18 18.38 128.18 18.62C128.18 18.89 128.25 19.11 128.38 19.27C128.51 19.42 128.68 19.54 128.88 19.62C129.08 19.7 129.3 19.75 129.54 19.78C129.78 19.8 130 19.81 130.2 19.81C130.61 19.81 131.01 19.79 131.42 19.74C131.82 19.69 132.23 19.66 132.63 19.66C132.89 19.66 133.14 19.67 133.39 19.7Q133.77 19.74 134.15 19.74L134.15 19.74C134.35 19.74 134.56 19.73 134.8 19.73C135.04 19.71 135.26 19.67 135.47 19.6Q135.8 19.5 136.03 19.31C136.19 19.17 136.29 18.98 136.33 18.74C136.34 18.67 136.36 18.62 136.4 18.6C136.44 18.56 136.48 18.54 136.52 18.52C136.58 18.5 136.62 18.47 136.65 18.45C136.69 18.42 136.7 18.38 136.7 18.32C136.7 18.25 136.68 18.17 136.63 18.09C136.58 18 136.54 17.91 136.52 17.84C136.49 17.68 136.47 17.52 136.46 17.36L136.46 16.86C136.46 16.61 136.5 16.39 136.58 16.2C136.66 16.01 136.7 15.8 136.7 15.57Q136.7 15.47 136.69 15.38L136.69 15.19Q136.69 15.11 136.8 15.04C136.88 14.98 136.97 14.94 137.07 14.91C137.17 14.87 137.27 14.83 137.37 14.81Q137.53 14.77 137.6 14.77C137.81 14.77 137.99 14.85 138.12 15C138.26 15.14 138.36 15.32 138.42 15.53C138.5 15.74 138.55 15.96 138.58 16.19C138.6 16.42 138.62 16.61 138.62 16.77C138.62 17.03 138.59 17.33 138.55 17.66C138.51 17.99 138.45 18.33 138.38 18.67C138.31 19.02 138.23 19.36 138.13 19.69C138.04 20.01 137.95 20.29 137.86 20.54C137.8 20.65 137.75 20.74 137.7 20.8C137.66 20.86 137.61 20.91 137.55 20.95C137.5 20.99 137.44 21.03 137.37 21.07C137.31 21.1 137.25 21.16 137.17 21.25C137.1 21.32 136.97 21.37 136.78 21.4C136.59 21.42 136.39 21.44 136.18 21.44C136.02 21.44 135.87 21.43 135.73 21.42C135.58 21.42 135.47 21.41 135.4 21.41C135.12 21.41 134.89 21.44 134.71 21.51C134.54 21.58 134.38 21.61 134.23 21.61Q134.07 21.61 134.02 21.55C133.98 21.5 133.93 21.47 133.86 21.47C133.8 21.47 133.75 21.5 133.7 21.55Q133.62 21.63 133.47 21.63L133.15 21.63Q133 21.61 132.84 21.61C132.2 21.61 131.57 21.63 130.95 21.66Q130.01 21.73 129.06 21.75C128.63 21.77 128.2 21.82 127.78 21.91Q127.47 21.97 127.15 22L127.15 22Q126.83 22.03 126.5 22.03C126.35 22.03 126.17 22.02 125.98 21.98C125.79 21.96 125.6 21.91 125.42 21.83C125.25 21.75 125.11 21.65 124.99 21.52C124.87 21.39 124.81 21.22 124.81 21.03Q124.81 20.98 124.82 20.94Q124.85 20.71 125.02 20.5C125.15 20.33 125.31 20.17 125.5 20.03C125.69 19.89 125.89 19.75 126.09 19.64C126.3 19.51 126.46 19.39 126.59 19.28C126.58 19.21 126.58 19.15 126.58 19.09L126.58 18.53C126.58 18.41 126.61 18.28 126.65 18.15C126.67 18.08 126.71 17.99 126.78 17.89C126.85 17.78 126.89 17.68 126.89 17.61C126.89 17.55 126.88 17.49 126.85 17.44C126.84 17.39 126.82 17.34 126.8 17.28C126.71 17.05 126.64 16.85 126.6 16.67C126.57 16.49 126.55 16.28 126.55 16.02L126.55 15.63C126.56 15.51 126.57 15.4 126.58 15.3C126.59 15.19 126.61 15.08 126.64 14.97C126.67 14.85 126.71 14.72 126.77 14.58C126.73 14.52 126.69 14.43 126.65 14.31C126.61 14.19 126.59 14.1 126.59 14.03L126.77 12.23C126.76 12.21 126.75 12.17 126.75 12.11C126.75 12.03 126.77 11.96 126.79 11.88C126.82 11.8 126.83 11.72 126.83 11.64C126.83 11.44 126.79 11.25 126.73 11.07C126.66 10.87 126.63 10.68 126.63 10.49C126.63 10.42 126.64 10.34 126.68 10.24C126.71 10.15 126.74 10.05 126.78 9.94C126.82 9.83 126.86 9.71 126.89 9.59C126.93 9.45 126.94 9.31 126.94 9.15C126.94 9.04 126.91 8.93 126.85 8.85C126.8 8.77 126.78 8.67 126.78 8.56C126.78 8.46 126.8 8.36 126.85 8.25C126.9 8.15 126.93 8.04 126.93 7.93C126.93 7.76 126.9 7.6 126.83 7.44C126.77 7.28 126.71 7.13 126.64 6.99C126.54 6.78 126.46 6.61 126.4 6.48C126.35 6.34 126.28 6.24 126.21 6.16C126.13 6.08 126.03 6.02 125.89 5.99C125.76 5.94 125.58 5.91 125.33 5.9C125.21 5.89 125.1 5.85 124.99 5.8C124.89 5.73 124.8 5.64 124.71 5.54C124.64 5.44 124.57 5.33 124.52 5.21C124.47 5.09 124.45 4.98 124.45 4.87C124.45 4.72 124.51 4.59 124.65 4.49C124.78 4.38 124.96 4.3 125.17 4.24C125.38 4.17 125.62 4.12 125.88 4.08C126.14 4.04 126.39 4.01 126.64 4C126.89 3.97 127.12 3.95 127.32 3.95C127.53 3.94 127.69 3.92 127.8 3.91C127.97 3.88 128.14 3.86 128.3 3.86C128.46 3.85 128.62 3.84 128.79 3.84C129.12 3.84 129.45 3.86 129.78 3.88C130.12 3.9 130.45 3.91 130.78 3.91C131.14 3.91 131.48 3.87 131.82 3.81C132.17 3.74 132.52 3.7 132.87 3.7C133.2 3.7 133.51 3.74 133.83 3.82C134.14 3.89 134.45 3.92 134.75 3.92C135.05 3.92 135.34 3.89 135.62 3.82C135.91 3.74 136.2 3.7 136.5 3.7C136.63 3.7 136.75 3.72 136.88 3.74C137.07 3.95 137.23 4.11 137.39 4.25C137.55 4.38 137.68 4.52 137.79 4.67C137.91 4.8 138 4.96 138.07 5.15C138.15 5.34 138.2 5.58 138.22 5.88C138.23 5.99 138.24 6.13 138.24 6.29C138.24 6.44 138.24 6.59 138.25 6.75C138.26 6.89 138.28 7.02 138.31 7.14C138.35 7.26 138.42 7.33 138.5 7.35C138.5 7.47 138.44 7.53 138.32 7.53C138.33 7.65 138.36 7.77 138.4 7.9C138.44 8.02 138.49 8.14 138.53 8.27C138.57 8.39 138.61 8.51 138.64 8.63C138.67 8.75 138.69 8.87 138.69 8.98ZM23.79 4.69C23.79 4.44 23.89 4.18 24.12 3.97C24.4 3.71 24.91 3.65 25.25 3.83C25.49 3.96 25.73 4.43 25.73 4.76C25.73 5.16 25.25 5.62 24.82 5.63C24.2 5.65 23.79 5.19 23.79 4.69ZM28.25 5.31C28.25 4.94 28.46 4.57 28.84 4.41C29.14 4.29 29.21 4.3 30.52 4.56C33.69 5.21 36.54 6.39 39.04 8.1C40.3 8.96 42.1 10.67 42.95 11.81C43.62 12.7 44.68 14.64 44.68 14.98C44.68 15.49 44.21 15.95 43.69 15.96C43.18 15.96 43 15.79 42.46 14.74C40.38 10.7 35.87 7.69 30.09 6.49C29.01 6.26 28.72 6.16 28.51 5.96C28.33 5.78 28.25 5.55 28.25 5.31ZM103.36 7.96C103.36 7.84 103.33 7.71 103.28 7.56C103.23 7.4 103.17 7.24 103.09 7.08C103.01 6.92 102.93 6.76 102.84 6.62C102.75 6.48 102.67 6.36 102.58 6.26C102.4 6.26 102.29 6.25 102.23 6.23C102.17 6.2 102.13 6.17 102.11 6.14C102.1 6.1 102.08 6.05 102.05 6C102.03 5.95 101.97 5.9 101.87 5.85C101.58 5.7 101.31 5.59 101.07 5.52C100.84 5.44 100.55 5.4 100.22 5.4C100.13 5.4 100.04 5.43 99.95 5.48C99.86 5.53 99.78 5.55 99.72 5.55C99.52 5.55 99.33 5.53 99.15 5.49C98.96 5.44 98.77 5.42 98.58 5.42C98.3 5.42 98.01 5.45 97.71 5.52Q97.42 5.59 97.13 5.66C96.94 5.7 96.76 5.76 96.61 5.85Q96.51 5.9 96.42 5.98L96.42 5.98Q96.32 6.07 96.23 6.19C96.14 6.33 96.09 6.53 96.09 6.78C96.09 7.05 96.12 7.3 96.17 7.56C96.23 7.81 96.26 8.07 96.26 8.33C96.26 8.46 96.24 8.58 96.19 8.7C96.16 8.82 96.12 8.93 96.08 9.05C96.04 9.16 96 9.28 95.95 9.4C95.92 9.51 95.9 9.64 95.9 9.76C95.9 9.91 95.91 10.07 95.94 10.23Q95.99 10.46 96.11 10.65C96.18 10.77 96.28 10.87 96.4 10.94Q96.59 11.06 96.87 11.06C97.04 11.06 97.21 11.02 97.37 10.95C97.53 10.88 97.7 10.84 97.88 10.84C97.97 10.84 98.06 10.87 98.15 10.92C98.23 10.96 98.31 11.01 98.4 11.06C98.48 11.11 98.57 11.16 98.67 11.21C98.76 11.25 98.86 11.27 98.97 11.27C99.05 11.27 99.13 11.26 99.21 11.25C99.29 11.22 99.36 11.19 99.43 11.16C99.75 11.01 100.09 10.89 100.44 10.78C100.8 10.66 101.16 10.6 101.52 10.6C101.61 10.6 101.72 10.55 101.85 10.45C101.97 10.34 102.1 10.2 102.24 10.04C102.38 9.87 102.51 9.69 102.65 9.5C102.78 9.29 102.9 9.1 103 8.9C103.11 8.7 103.19 8.52 103.25 8.36C103.32 8.19 103.36 8.06 103.36 7.96ZM152.43 7.96C152.43 7.84 152.41 7.71 152.36 7.56C152.3 7.4 152.24 7.24 152.17 7.08C152.09 6.92 152 6.76 151.91 6.62C151.83 6.48 151.74 6.36 151.66 6.26C151.48 6.26 151.36 6.25 151.3 6.23C151.24 6.2 151.21 6.17 151.19 6.14C151.17 6.1 151.15 6.05 151.13 6C151.11 5.95 151.05 5.9 150.95 5.85C150.65 5.7 150.39 5.59 150.15 5.52Q149.8 5.4 149.3 5.4C149.21 5.4 149.11 5.43 149.02 5.48Q148.89 5.55 148.79 5.55C148.6 5.55 148.41 5.53 148.22 5.49C148.04 5.44 147.85 5.42 147.65 5.42C147.37 5.42 147.09 5.45 146.79 5.52C146.6 5.57 146.4 5.61 146.21 5.66C146.01 5.7 145.84 5.76 145.69 5.85C145.54 5.93 145.41 6.05 145.31 6.19Q145.17 6.4 145.17 6.78C145.17 7.05 145.19 7.3 145.24 7.56C145.3 7.81 145.33 8.07 145.33 8.33C145.33 8.46 145.31 8.58 145.27 8.7C145.24 8.82 145.2 8.93 145.16 9.05C145.11 9.16 145.07 9.28 145.03 9.4C145 9.51 144.98 9.64 144.98 9.76C144.98 9.91 144.99 10.07 145.02 10.23C145.05 10.38 145.11 10.52 145.18 10.65C145.26 10.77 145.35 10.87 145.47 10.94C145.6 11.02 145.76 11.06 145.94 11.06C146.12 11.06 146.29 11.02 146.45 10.95C146.61 10.88 146.78 10.84 146.96 10.84C147.05 10.84 147.14 10.87 147.22 10.92C147.31 10.96 147.39 11.01 147.48 11.06C147.56 11.11 147.65 11.16 147.74 11.21Q147.76 11.21 147.77 11.22Q147.9 11.27 148.05 11.27C148.13 11.27 148.21 11.26 148.29 11.25C148.36 11.22 148.43 11.19 148.5 11.16C148.82 11.01 149.16 10.89 149.52 10.78C149.88 10.66 150.24 10.6 150.59 10.6C150.69 10.6 150.8 10.55 150.92 10.45C151.05 10.34 151.18 10.2 151.32 10.04C151.45 9.87 151.59 9.69 151.72 9.5C151.86 9.29 151.98 9.1 152.08 8.9C152.19 8.7 152.27 8.52 152.33 8.36C152.4 8.19 152.43 8.06 152.43 7.96ZM71.15 8.63C71.15 8.54 71.14 8.43 71.11 8.31C71.09 8.18 71.06 8.05 71.02 7.93C70.99 7.79 70.95 7.66 70.92 7.53C70.89 7.4 70.86 7.28 70.84 7.18C70.82 7.05 70.78 6.95 70.73 6.87C70.68 6.79 70.62 6.72 70.55 6.67C70.49 6.61 70.41 6.56 70.32 6.51Q70.2 6.42 70.07 6.3C69.86 6.12 69.66 5.97 69.46 5.86C69.27 5.75 69.07 5.66 68.85 5.61C68.64 5.55 68.42 5.51 68.18 5.49Q67.83 5.45 67.4 5.45C67.21 5.45 67.02 5.46 66.81 5.47Q66.52 5.48 66.28 5.54C66.25 5.56 66.23 5.58 66.22 5.61Q66.21 5.64 66.15 5.68Q66.12 5.72 66 5.76C65.93 5.77 65.81 5.78 65.65 5.78C65.4 5.78 65.2 5.82 65.04 5.88C64.89 5.95 64.76 6.05 64.67 6.18C64.59 6.29 64.53 6.44 64.49 6.62C64.46 6.79 64.44 6.98 64.43 7.2C64.42 7.48 64.41 7.77 64.41 8.06C64.41 8.36 64.39 8.66 64.37 8.95C64.34 9.24 64.3 9.52 64.23 9.8C64.17 10.08 64.07 10.35 63.94 10.61C64.41 10.73 64.89 10.82 65.38 10.89C65.87 10.96 66.35 10.99 66.83 10.99C67.16 10.99 67.49 10.98 67.82 10.95C68.15 10.93 68.48 10.89 68.8 10.83Q68.98 10.79 69.27 10.69C69.48 10.62 69.67 10.54 69.86 10.43C70.05 10.33 70.22 10.22 70.36 10.09C70.51 9.97 70.6 9.83 70.62 9.7C70.63 9.6 70.67 9.51 70.72 9.42C70.78 9.34 70.84 9.26 70.9 9.18C70.96 9.1 71.02 9.01 71.07 8.93C71.12 8.84 71.15 8.74 71.15 8.63ZM22.24 9.63C22.24 9.31 22.3 9.18 22.56 8.95C22.91 8.63 23.24 8.59 23.65 8.8C23.97 8.96 24.14 9.28 24.14 9.61C24.14 9.79 24.09 9.97 23.99 10.14C23.5 10.98 22.24 10.61 22.24 9.63ZM14.59 9.63C14.59 9.3 14.75 8.98 15.05 8.82C15.48 8.59 15.83 8.63 16.18 8.94C16.4 9.13 16.51 9.38 16.51 9.63C16.51 9.82 16.44 10.02 16.3 10.21C15.92 10.72 15.32 10.75 14.85 10.28C14.67 10.1 14.59 9.86 14.59 9.63ZM127.72 12.1C127.67 12.1 127.62 12.1 127.58 12.12C127.53 12.14 127.5 12.18 127.49 12.23C127.81 12.42 128.06 12.6 128.25 12.77C128.44 12.93 128.59 13.06 128.69 13.16C128.8 13.26 128.88 13.32 128.93 13.34C128.98 13.35 129.03 13.29 129.08 13.17C129.11 13.11 129.13 13.05 129.13 12.98C129.13 12.9 129.1 12.82 129.05 12.74C128.96 12.61 128.84 12.49 128.68 12.4C128.53 12.31 128.36 12.23 128.17 12.18C127.99 12.12 127.84 12.1 127.72 12.1ZM9.84 13.28C9.84 12.95 10.01 12.61 10.38 12.45C10.77 12.28 10.78 12.28 11.18 12.45C11.58 12.62 11.73 12.86 11.73 13.35C11.73 13.85 11.29 14.28 10.79 14.28C10.2 14.28 9.84 13.78 9.84 13.28ZM19.71 13.28C19.71 12.95 19.87 12.61 20.24 12.45C20.64 12.28 20.64 12.28 21.04 12.45C21.44 12.62 21.59 12.86 21.59 13.35C21.59 13.85 21.15 14.28 20.65 14.28C20.06 14.28 19.71 13.78 19.71 13.28ZM26.68 14.07C26.68 13.74 26.87 13.34 27.13 13.16C27.41 12.96 27.73 12.96 28.1 13.15C28.45 13.33 28.59 13.57 28.59 13.99L28.59 14.01C28.59 14.53 28.12 14.97 27.57 14.97C27.25 14.97 26.76 14.55 26.69 14.21C26.68 14.17 26.68 14.12 26.68 14.07ZM71.57 17.1C71.57 16.88 71.54 16.66 71.48 16.44C71.43 16.22 71.39 16 71.35 15.78C71.33 15.58 71.3 15.42 71.28 15.3Q71.25 15.12 71.17 15C71.13 14.9 71.07 14.82 70.98 14.73C70.9 14.65 70.78 14.54 70.62 14.4C70.57 14.22 70.53 14.11 70.48 14.07C70.43 14.04 70.39 14.02 70.34 14.02C70.3 14.02 70.25 14.03 70.2 14.03L70.07 14.03L69.89 13.68C69.73 13.57 69.59 13.49 69.46 13.43Q69.29 13.34 68.99 13.31C68.83 13.29 68.66 13.26 68.49 13.21C68.33 13.16 68.16 13.13 67.98 13.13C67.9 13.13 67.84 13.16 67.8 13.22C67.76 13.28 67.73 13.31 67.7 13.31C67.65 13.31 67.59 13.3 67.52 13.29Q67.42 13.25 67.31 13.22C67.23 13.2 67.15 13.18 67.07 13.16Q66.95 13.12 66.85 13.12Q66.36 13.12 65.88 13.22Q65.81 13.23 65.74 13.25C65.38 13.32 65.02 13.41 64.66 13.5C64.59 13.68 64.52 13.87 64.46 14.08C64.4 14.3 64.34 14.51 64.29 14.73C64.24 14.95 64.2 15.17 64.17 15.39C64.13 15.6 64.11 15.8 64.11 15.99C64.11 16.08 64.12 16.16 64.14 16.21C64.16 16.27 64.18 16.31 64.2 16.35C64.23 16.4 64.25 16.44 64.27 16.48C64.28 16.52 64.29 16.57 64.29 16.63C64.29 16.97 64.25 17.3 64.18 17.63C64.11 17.95 64.08 18.28 64.08 18.62C64.08 18.84 64.11 19.05 64.17 19.26Q64.18 19.32 64.21 19.39L64.21 19.39Q64.3 19.62 64.47 19.81C64.64 19.81 64.8 19.85 64.95 19.92Q65.01 19.94 65.06 19.95L65.06 19.95Q65.24 20 65.43 20C65.55 20 65.66 19.97 65.77 19.92C65.89 19.86 65.99 19.83 66.05 19.83C66.12 19.83 66.17 19.86 66.21 19.92Q66.22 19.94 66.24 19.95Q66.3 20 66.41 20L66.46 20C66.48 19.96 66.53 19.93 66.6 19.9C66.67 19.87 66.74 19.85 66.83 19.84C66.92 19.82 67.02 19.81 67.12 19.81C67.22 19.81 67.32 19.8 67.41 19.8C67.59 19.8 67.72 19.81 67.82 19.81C67.92 19.82 68.03 19.83 68.16 19.83C68.51 19.75 68.85 19.66 69.17 19.55C69.44 19.45 69.72 19.34 70 19.19C70.28 19.05 70.51 18.88 70.67 18.69Q70.79 18.56 70.95 18.37C71.06 18.24 71.15 18.11 71.24 17.98C71.33 17.83 71.41 17.69 71.47 17.55C71.53 17.39 71.57 17.25 71.57 17.1ZM47.83 20.35L47.82 20.33C47.81 19.68 47.76 19.63 47.19 19.83C46.73 19.99 45.25 20 25.09 19.98C13.21 19.96 3.41 19.92 3.32 19.87C3.16 19.8 3.14 19.84 3.14 20.29C3.14 21.08 3.54 21.72 4.25 22.09C4.88 22.41 5.36 22.42 6.35 22.13C7.33 21.85 8.54 21.78 9.41 21.98C9.98 22.1 10.83 22.52 11.67 23.09C12.5 23.65 13.08 23.85 13.9 23.85C14.76 23.85 15.25 23.67 16.46 22.88C17.66 22.1 18.37 21.87 19.64 21.87C21.07 21.86 21.72 22.08 23.29 23.1C24.23 23.71 24.64 23.85 25.54 23.85C26.29 23.85 26.97 23.6 27.86 23C29.14 22.13 29.95 21.86 31.31 21.87C32.68 21.87 33.5 22.16 34.97 23.17C35.67 23.65 36.29 23.85 37.08 23.85C37.89 23.85 38.47 23.66 39.3 23.1C40.81 22.09 41.45 21.87 42.82 21.87C43.5 21.87 43.92 21.92 44.43 22.09C46 22.59 47.2 22.21 47.68 21.07C47.76 20.87 47.83 20.55 47.83 20.35ZM22.34 24.84C21.93 24.57 21.4 24.25 21.17 24.14C20.43 23.76 19.14 23.73 18.32 24.08C18.12 24.16 17.69 24.41 17.37 24.63C15.95 25.59 14.98 25.89 13.52 25.8C12.42 25.74 11.77 25.5 10.62 24.75C10.11 24.42 9.5 24.09 9.27 24C8.68 23.79 7.54 23.81 6.78 24.04C6.43 24.14 5.96 24.26 5.73 24.3L5.31 24.36L5.31 26.22L45.17 26.22L45.17 25.23C45.17 24.33 45.15 24.25 44.98 24.25C44.88 24.25 44.5 24.15 44.13 24.04C42.82 23.64 41.76 23.81 40.56 24.62C39.13 25.59 38.17 25.89 36.71 25.8C35.61 25.74 34.96 25.5 33.8 24.75C32.63 24 32.2 23.84 31.24 23.84C30.37 23.84 29.83 24.03 28.83 24.72C27.51 25.61 26.6 25.87 25.14 25.8C24.02 25.74 23.38 25.52 22.34 24.84ZM14 33.86C13.61 33.86 13.54 33.8 10.76 31.03L7.92 28.19L6.39 28.2C5.56 28.21 4.61 28.26 4.3 28.33C2.83 28.65 1.98 30.01 1.98 31.38C1.98 32.23 2.3 33.08 3.01 33.71C3.16 33.84 3.27 33.95 3.39 34.04C4 34.48 4.95 34.46 12.74 34.48C17.34 34.5 21.1 34.48 21.1 34.43C21.1 34.32 17.61 30.86 17.5 30.86C17.44 30.86 16.72 31.53 15.9 32.36C14.46 33.8 14.37 33.86 14 33.86ZM13.99 31.5L16.11 29.38L14.94 28.19L10.69 28.19L13.99 31.5ZM25.68 36.18C25.68 36.18 27.48 34.39 29.68 32.19L33.67 28.19L17.7 28.19L21.69 32.19C23.89 34.39 25.68 36.18 25.68 36.18ZM48.5 31.31C48.5 29.82 47.48 28.56 46.03 28.3C45.63 28.23 43.79 28.19 40.97 28.2L36.54 28.2L33.4 31.3C31.68 33.01 30.27 34.43 30.27 34.45C30.27 34.55 45.3 34.51 45.89 34.41C47.39 34.17 48.35 33.14 48.49 31.62C48.5 31.51 48.5 31.41 48.5 31.31ZM107.96 30.45C107.96 30.55 107.92 30.64 107.84 30.71C107.77 30.78 107.67 30.84 107.56 30.89C107.46 30.94 107.36 30.99 107.25 31.03C107.14 31.07 107.04 31.11 106.97 31.14C106.9 31.18 106.84 31.22 106.79 31.26L106.65 31.4C106.61 31.44 106.56 31.48 106.5 31.51C106.45 31.55 106.38 31.58 106.3 31.6C106.19 31.63 106.09 31.64 106 31.64C105.92 31.64 105.84 31.65 105.76 31.66C105.69 31.67 105.62 31.7 105.56 31.75C105.5 31.8 105.44 31.89 105.38 32.02C105.33 32.13 105.29 32.26 105.27 32.41C105.25 32.56 105.22 32.7 105.18 32.83C105.14 32.97 105.07 33.08 104.99 33.17C104.91 33.27 104.79 33.31 104.62 33.31C104.62 33.41 104.65 33.5 104.71 33.6L104.91 33.88C104.99 33.98 105.06 34.07 105.12 34.17C105.18 34.27 105.21 34.36 105.21 34.45C105.21 34.55 105.18 34.65 105.14 34.74C105.1 34.84 105.08 34.93 105.08 35.04L105.07 35.81C105.07 35.83 105.07 35.85 105.07 35.87Q105.07 36.09 105.16 36.32C105.23 36.48 105.27 36.65 105.27 36.82C105.27 36.92 105.25 37.03 105.21 37.13C105.16 37.22 105.14 37.32 105.14 37.43C105.14 37.79 105.18 38.14 105.24 38.5C105.32 38.84 105.36 39.2 105.36 39.57C105.36 39.82 105.34 40.08 105.29 40.37C105.25 40.65 105.15 40.89 104.99 41.08C105 41.2 105.02 41.3 105.07 41.39C105.11 41.46 105.15 41.55 105.19 41.64C105.24 41.72 105.27 41.82 105.31 41.93C105.35 42.03 105.37 42.17 105.37 42.34C105.37 42.49 105.35 42.69 105.32 42.95C105.29 43.19 105.24 43.43 105.17 43.67C105.09 43.9 104.99 44.1 104.85 44.28C104.72 44.44 104.56 44.53 104.36 44.53L104.31 44.53C104.3 44.52 104.28 44.52 104.27 44.52L104.26 44.59L104.26 44.63C104.26 44.75 104.29 44.85 104.36 44.95C104.43 45.04 104.47 45.15 104.47 45.26C104.47 45.32 104.43 45.4 104.36 45.49C104.29 45.59 104.2 45.68 104.1 45.78C104 45.89 103.9 45.98 103.79 46.08C103.68 46.17 103.6 46.25 103.53 46.32C103.46 46.39 103.4 46.47 103.36 46.54C103.32 46.61 103.28 46.68 103.24 46.73C103.21 46.79 103.16 46.83 103.09 46.87C103.03 46.91 102.94 46.94 102.81 46.96C102.59 47.01 102.4 47.07 102.23 47.15C102.06 47.24 101.89 47.33 101.73 47.42C101.57 47.5 101.4 47.58 101.21 47.63C101.03 47.7 100.8 47.74 100.54 47.74C100.4 47.74 100.26 47.72 100.12 47.69C99.99 47.65 99.85 47.61 99.72 47.57C99.58 47.52 99.44 47.48 99.3 47.44C99.16 47.41 99.03 47.39 98.89 47.39C98.78 47.39 98.67 47.4 98.56 47.42C98.46 47.43 98.36 47.43 98.25 47.43C98.16 47.43 98.09 47.43 98.04 47.42C98 47.41 97.95 47.38 97.89 47.32C97.85 47.27 97.78 47.22 97.69 47.18C97.6 47.14 97.51 47.1 97.41 47.06C97.31 47.02 97.21 46.99 97.11 46.96C97 46.93 96.92 46.9 96.85 46.89C96.7 46.84 96.55 46.76 96.41 46.63C96.27 46.51 96.15 46.36 96.03 46.2C95.92 46.03 95.82 45.86 95.72 45.68C95.64 45.51 95.57 45.34 95.52 45.2C95.42 44.91 95.35 44.62 95.31 44.33C95.26 44.02 95.23 43.72 95.21 43.43C95.18 43.12 95.15 42.82 95.12 42.53Q95.1 42.3 95.06 42.09L95.06 42.09Q95.02 41.85 94.96 41.63C94.93 41.51 94.89 41.39 94.85 41.27C94.82 41.15 94.8 41.02 94.8 40.89C94.8 40.8 94.81 40.71 94.82 40.63L94.88 40.35C94.94 39.99 94.99 39.63 95.03 39.27C95.07 38.91 95.09 38.54 95.09 38.18C95.09 37.7 95.07 37.22 95.02 36.75C94.97 36.27 94.95 35.8 94.95 35.31L94.95 35.05C94.95 34.96 94.96 34.88 94.96 34.78C94.98 34.61 95.02 34.45 95.07 34.29C95.12 34.13 95.15 33.96 95.15 33.79C95.15 33.73 95.15 33.68 95.13 33.63C95.11 33.58 95.1 33.52 95.08 33.46C94.98 33.24 94.92 33.05 94.9 32.87C94.88 32.68 94.87 32.47 94.85 32.23C94.82 31.87 94.74 31.61 94.62 31.46C94.51 31.31 94.37 31.2 94.19 31.13C94.02 31.06 93.83 31.01 93.62 30.97C93.42 30.92 93.2 30.81 92.97 30.64C92.91 30.6 92.85 30.55 92.8 30.49C92.75 30.42 92.73 30.35 92.73 30.27C92.73 30.14 92.81 30.01 92.95 29.9C93.1 29.79 93.28 29.7 93.48 29.64C93.68 29.57 93.89 29.52 94.09 29.48C94.29 29.44 94.45 29.42 94.56 29.42C94.69 29.42 94.82 29.44 94.94 29.47C95.07 29.51 95.2 29.52 95.33 29.52C95.6 29.52 95.86 29.49 96.12 29.43C96.37 29.37 96.63 29.33 96.9 29.33C97.01 29.33 97.18 29.35 97.41 29.4C97.64 29.44 97.87 29.5 98.09 29.59C98.32 29.66 98.52 29.76 98.69 29.88C98.87 29.99 98.96 30.11 98.96 30.26C98.96 30.44 98.9 30.62 98.78 30.79C98.67 30.95 98.53 31.11 98.36 31.26C98.19 31.41 98.01 31.57 97.8 31.73C97.61 31.89 97.43 32.06 97.26 32.25C97.09 32.43 96.95 32.64 96.83 32.88C96.72 33.11 96.66 33.37 96.66 33.65C96.66 33.82 96.67 34 96.68 34.17C96.69 34.34 96.7 34.51 96.7 34.68C96.7 35.02 96.67 35.35 96.6 35.68C96.54 36.01 96.51 36.35 96.51 36.7C96.51 36.98 96.55 37.23 96.62 37.46C96.71 37.68 96.75 37.85 96.75 37.98C96.75 38.11 96.73 38.24 96.7 38.36C96.68 38.47 96.66 38.58 96.66 38.71L96.66 38.88C96.67 38.93 96.68 38.98 96.68 39.04C96.68 39.18 96.65 39.29 96.61 39.37C96.58 39.46 96.54 39.53 96.5 39.6C96.46 39.67 96.41 39.73 96.37 39.79C96.33 39.85 96.31 39.92 96.31 39.99C96.35 39.96 96.39 39.93 96.43 39.9C96.48 39.88 96.52 39.87 96.57 39.87C96.63 39.87 96.68 39.89 96.71 39.93C96.75 39.97 96.77 40.02 96.79 40.08C96.81 40.13 96.83 40.19 96.84 40.26C96.85 40.32 96.85 40.37 96.85 40.41C96.85 40.63 96.88 40.85 96.94 41.06C97.01 41.27 97.04 41.48 97.04 41.7C97.04 41.9 97.03 42.1 96.99 42.3C96.96 42.49 96.94 42.69 96.94 42.89C96.94 43.09 96.95 43.27 96.98 43.44C97.01 43.6 97.13 43.73 97.32 43.83C97.36 43.85 97.39 43.9 97.44 43.98C97.48 44.07 97.52 44.16 97.56 44.26C97.61 44.36 97.66 44.45 97.71 44.55C97.77 44.65 97.82 44.72 97.87 44.76C97.97 44.85 98.08 44.93 98.2 44.99L98.55 45.16C98.68 45.21 98.8 45.27 98.91 45.34C99.02 45.4 99.13 45.48 99.22 45.59C99.3 45.69 99.4 45.77 99.51 45.85C99.63 45.92 99.75 45.99 99.86 46.08C99.98 46.15 100.08 46.24 100.16 46.33C100.25 46.42 100.29 46.54 100.29 46.67C100.29 46.56 100.31 46.47 100.34 46.41C100.35 46.43 100.35 46.47 100.35 46.52C100.35 46.59 100.33 46.64 100.3 46.67C100.33 46.65 100.36 46.6 100.39 46.54L100.49 46.37C100.52 46.31 100.56 46.26 100.59 46.22C100.63 46.17 100.66 46.15 100.71 46.15C100.77 46.15 100.82 46.17 100.87 46.22C100.92 46.26 100.95 46.31 100.95 46.38C100.95 46.46 100.93 46.54 100.9 46.62C100.86 46.7 100.84 46.78 100.83 46.86C100.92 46.86 101 46.84 101.09 46.81C101.18 46.77 101.26 46.72 101.34 46.66C101.42 46.6 101.48 46.53 101.52 46.46C101.57 46.37 101.59 46.28 101.59 46.19C101.59 46.08 101.56 46.01 101.49 45.99C101.43 45.95 101.36 45.94 101.26 45.94C101.2 45.94 101.13 45.94 101.06 45.95C101 45.96 100.94 45.96 100.87 45.96L100.83 45.96C100.88 45.83 100.94 45.73 101.02 45.64C101.11 45.56 101.2 45.49 101.31 45.44C101.42 45.38 101.54 45.34 101.66 45.3C101.78 45.26 101.89 45.22 102 45.18C102.18 45.11 102.32 45.02 102.43 44.91C102.54 44.79 102.64 44.67 102.73 44.54L103.01 44.16C103.11 44.03 103.22 43.9 103.36 43.79C103.36 43.74 103.37 43.68 103.37 43.63L103.37 43.48C103.37 43.3 103.36 43.13 103.34 42.96C103.33 42.78 103.33 42.6 103.33 42.43C103.33 42.23 103.36 42.04 103.41 41.84C103.47 41.65 103.49 41.45 103.49 41.26C103.49 41.09 103.47 40.93 103.43 40.78Q103.42 40.72 103.41 40.67L103.41 40.67Q103.37 40.48 103.37 40.28C103.37 40.13 103.39 39.98 103.43 39.84C103.47 39.69 103.49 39.54 103.49 39.38C103.49 39.14 103.47 38.9 103.43 38.67Q103.37 38.32 103.37 37.96L103.37 37.96C103.37 37.64 103.39 37.33 103.44 37.03C103.5 36.72 103.53 36.41 103.53 36.1Q103.53 35.49 103.42 34.91Q103.32 34.33 103.32 33.72L103.32 33.49C103.33 33.39 103.34 33.29 103.36 33.2C103.38 33.1 103.41 33.01 103.46 32.94C103.5 32.87 103.56 32.83 103.65 32.83C103.57 32.82 103.47 32.77 103.36 32.68C103.25 32.58 103.14 32.47 103.03 32.35C102.92 32.22 102.83 32.1 102.75 31.98C102.67 31.85 102.63 31.76 102.63 31.69L102.51 31.72L102.39 31.72C102.27 31.72 102.16 31.69 102.05 31.65L101.75 31.53C101.64 31.47 101.54 31.43 101.43 31.39C101.32 31.34 101.2 31.32 101.07 31.32L101.01 31.32C100.98 31.11 100.92 30.91 100.85 30.71C100.78 30.52 100.74 30.31 100.74 30.09C100.74 29.92 100.79 29.79 100.87 29.69C100.96 29.59 101.08 29.51 101.21 29.46C101.35 29.4 101.49 29.36 101.64 29.35C101.8 29.33 101.95 29.32 102.08 29.32C102.31 29.32 102.54 29.33 102.77 29.36C103 29.38 103.23 29.4 103.47 29.4C103.65 29.4 103.81 29.36 103.96 29.28C104.12 29.2 104.28 29.16 104.45 29.16C104.54 29.16 104.64 29.18 104.74 29.22C104.84 29.25 104.94 29.29 105.04 29.35L105.37 29.5C105.48 29.54 105.59 29.57 105.69 29.59C105.85 29.61 106.02 29.62 106.19 29.62C106.38 29.62 106.56 29.63 106.74 29.65C106.92 29.67 107.09 29.7 107.25 29.75C107.41 29.79 107.55 29.87 107.69 29.99C107.76 30.05 107.82 30.12 107.87 30.19C107.93 30.27 107.96 30.35 107.96 30.45ZM90.96 39.05C90.96 39.23 90.94 39.4 90.91 39.57C90.87 39.73 90.84 39.9 90.79 40.07C90.75 40.23 90.71 40.39 90.68 40.56C90.65 40.73 90.63 40.9 90.63 41.07C90.63 41.14 90.63 41.2 90.64 41.27C90.66 41.33 90.67 41.39 90.67 41.46C90.67 41.63 90.64 41.79 90.58 41.94C90.53 42.1 90.46 42.24 90.39 42.39C90.32 42.51 90.28 42.65 90.26 42.78L90.24 43.19C90.24 43.32 90.22 43.46 90.2 43.59C90.17 43.73 90.12 43.85 90.05 43.97L89.97 44.35C89.95 44.51 89.91 44.63 89.87 44.69C89.86 44.71 89.84 44.72 89.79 44.73C89.75 44.74 89.7 44.75 89.65 44.76C89.6 44.77 89.55 44.78 89.49 44.81C89.43 44.83 89.38 44.87 89.34 44.92C89.29 44.96 89.26 45.02 89.24 45.1C89.21 45.18 89.18 45.25 89.15 45.33C89.11 45.4 89.07 45.47 89.02 45.53C88.98 45.58 88.92 45.61 88.84 45.61C88.77 45.61 88.7 45.59 88.64 45.57C88.58 45.53 88.52 45.51 88.46 45.48C88.4 45.45 88.34 45.42 88.28 45.4C88.23 45.39 88.15 45.39 88.07 45.42C88.09 45.43 88.1 45.46 88.1 45.5C88.1 45.51 88.1 45.53 88.09 45.54C88.09 45.57 88.09 45.6 88.09 45.64C88.09 45.67 88.09 45.7 88.09 45.73C88.11 45.8 88.15 45.86 88.21 45.92C88.27 45.98 88.37 46.01 88.53 46.01C88.6 46.01 88.67 46.01 88.74 46C88.82 45.99 88.89 45.98 88.97 45.96C88.9 46.15 88.82 46.3 88.73 46.41C88.64 46.51 88.53 46.6 88.41 46.68C88.3 46.76 88.18 46.84 88.06 46.92C87.94 47 87.82 47.1 87.7 47.23C87.56 47.37 87.42 47.46 87.28 47.5C87.16 47.53 87 47.57 86.83 47.62C86.62 47.68 86.48 47.75 86.4 47.84C86.31 47.92 86.22 48 86.12 48.08C86.02 48.15 85.88 48.22 85.7 48.27C85.53 48.33 85.26 48.36 84.89 48.36C84.55 48.36 84.21 48.34 83.87 48.32C83.54 48.29 83.22 48.26 82.89 48.22C82.73 48.2 82.61 48.17 82.51 48.13Q82.42 48.1 82.34 48.06Q82.29 48.03 82.24 48C82.15 47.96 82.07 47.91 81.99 47.86C81.9 47.81 81.8 47.76 81.67 47.71C81.6 47.69 81.52 47.65 81.43 47.61C81.33 47.58 81.24 47.54 81.14 47.5C81.03 47.45 80.94 47.41 80.86 47.37C80.77 47.32 80.71 47.27 80.65 47.23C80.6 47.18 80.55 47.12 80.53 47.06L80.48 46.86C80.46 46.79 80.44 46.72 80.41 46.66C80.4 46.59 80.36 46.54 80.3 46.49C80.17 46.48 80.05 46.46 79.93 46.43C79.81 46.4 79.7 46.36 79.58 46.32C79.54 46.22 79.51 46.13 79.48 46.05C79.45 45.96 79.42 45.86 79.39 45.77C79.28 45.65 79.17 45.56 79.07 45.48C78.97 45.4 78.88 45.31 78.8 45.23C78.73 45.14 78.66 45.04 78.6 44.93Q78.53 44.76 78.5 44.48C78.47 44.26 78.42 44.05 78.35 43.84C78.27 43.63 78.19 43.43 78.11 43.22C78.03 43.02 77.96 42.81 77.89 42.6C77.83 42.39 77.8 42.18 77.8 41.96C77.8 41.73 77.85 41.5 77.94 41.26C77.7 40.91 77.55 40.54 77.49 40.13C77.43 39.72 77.4 39.3 77.4 38.89L77.4 38.5C77.41 38.36 77.41 38.23 77.41 38.1C77.41 37.96 77.38 37.85 77.31 37.77C77.25 37.69 77.22 37.59 77.22 37.47C77.22 37.28 77.25 37.1 77.3 36.92C77.36 36.75 77.39 36.57 77.41 36.38C77.3 36.36 77.23 36.32 77.19 36.25L77.22 36.2C77.28 36.1 77.33 36.01 77.36 35.92C77.4 35.84 77.43 35.76 77.45 35.68Q77.47 35.57 77.5 35.44C77.52 35.36 77.54 35.26 77.56 35.15C77.63 34.8 77.71 34.47 77.82 34.14C77.93 33.81 78.03 33.47 78.13 33.13C78.24 32.75 78.38 32.4 78.54 32.11C78.7 31.81 78.95 31.54 79.29 31.28C79.43 31.17 79.56 31.04 79.68 30.9C79.8 30.77 79.88 30.61 79.93 30.42C79.97 30.39 80.02 30.37 80.07 30.36C80.12 30.35 80.17 30.35 80.22 30.35L80.33 30.35C80.38 30.35 80.44 30.34 80.49 30.33C80.55 30.32 80.6 30.29 80.65 30.25C80.78 30.13 80.89 30.04 80.98 29.99C81.09 29.94 81.22 29.92 81.39 29.92C81.51 29.92 81.62 29.93 81.73 29.95C81.84 29.97 81.96 29.99 82.07 30.02C82.12 29.97 82.18 29.92 82.25 29.85C82.34 29.78 82.41 29.73 82.47 29.7L82.47 29.74C82.47 29.77 82.47 29.81 82.48 29.84C82.5 29.86 82.53 29.88 82.57 29.88C82.68 29.88 82.78 29.85 82.89 29.8C82.99 29.75 83.09 29.72 83.2 29.7C83.45 29.66 83.69 29.59 83.94 29.51Q84.21 29.4 84.5 29.38Q84.59 29.37 84.69 29.37C84.96 29.37 85.24 29.39 85.55 29.42C85.86 29.46 86.16 29.52 86.46 29.61C86.76 29.7 87.03 29.84 87.28 30C87.54 30.16 87.74 30.38 87.89 30.64C87.96 30.76 88.03 30.85 88.09 30.92C88.16 30.98 88.23 31.03 88.3 31.08C88.37 31.12 88.43 31.17 88.5 31.22C88.57 31.26 88.64 31.33 88.72 31.41C88.88 31.6 89 31.8 89.1 32.02C89.2 32.23 89.34 32.42 89.51 32.59C89.73 32.79 89.89 33.04 90 33.33C90.11 33.61 90.16 33.9 90.16 34.2C90.16 34.29 90.15 34.39 90.12 34.48C90.1 34.57 90.08 34.67 90.08 34.77C90.08 34.85 90.1 34.94 90.14 35.04C90.18 35.13 90.22 35.23 90.27 35.33C90.33 35.43 90.37 35.53 90.41 35.64C90.46 35.75 90.49 35.86 90.5 35.96C90.53 36.19 90.57 36.41 90.62 36.63C90.67 36.84 90.72 37.06 90.77 37.29C90.84 37.58 90.89 37.87 90.92 38.17C90.95 38.4 90.96 38.64 90.96 38.88C90.96 38.94 90.96 38.99 90.96 39.05ZM138.77 34.93C138.77 34.97 138.75 35.04 138.7 35.14C138.66 35.24 138.61 35.35 138.55 35.47C138.5 35.59 138.45 35.7 138.39 35.8C138.33 35.9 138.28 35.97 138.25 36L138.27 36.01C138.26 36.01 138.24 36.02 138.22 36.02L138.16 36.02C138.13 36.03 138.09 36.04 138.05 36.04L137.93 36.04L137.98 36.02C137.79 36.02 137.61 35.98 137.45 35.92C137.3 35.86 137.17 35.73 137.07 35.56C137.05 35.52 137.03 35.46 136.99 35.38C136.96 35.29 136.93 35.19 136.89 35.09C136.86 34.99 136.83 34.89 136.8 34.81C136.79 34.71 136.78 34.65 136.78 34.61C136.78 34.54 136.78 34.47 136.79 34.39C136.81 34.31 136.82 34.24 136.82 34.17C136.82 33.91 136.79 33.65 136.74 33.4C136.69 33.15 136.66 32.89 136.66 32.63C136.66 32.46 136.69 32.29 136.73 32.13C136.77 31.97 136.85 31.83 136.96 31.69L136.89 31.69C136.79 31.69 136.71 31.66 136.65 31.6C136.59 31.53 136.5 31.5 136.36 31.5C136.04 31.5 135.73 31.54 135.42 31.61C135.12 31.69 134.8 31.73 134.46 31.73L134.05 31.73C133.92 31.72 133.78 31.72 133.63 31.72C133.37 31.72 133.12 31.74 132.86 31.8Q132.48 31.89 132.13 31.89C132.1 31.89 132.09 31.89 132.09 31.88Q132.09 31.85 132.18 31.82C132.24 31.78 132.27 31.76 132.27 31.74C132.27 31.71 132.24 31.69 132.18 31.69L132.08 31.69C132.01 31.69 131.95 31.72 131.9 31.79C131.86 31.86 131.79 31.91 131.7 31.93C131.57 31.96 131.43 31.98 131.29 31.98L130.87 31.98C130.79 31.98 130.66 31.98 130.5 31.97C130.34 31.96 130.18 31.94 130.02 31.92C129.86 31.88 129.71 31.84 129.58 31.78C129.45 31.71 129.38 31.62 129.36 31.5C129.27 31.53 129.21 31.57 129.17 31.64C129.15 31.7 129.12 31.76 129.1 31.83C129.08 31.9 129.05 31.96 129.01 32.02C128.97 32.07 128.88 32.1 128.75 32.11C128.52 32.13 128.37 32.2 128.3 32.34C128.23 32.47 128.2 32.62 128.2 32.79C128.2 32.89 128.2 32.98 128.21 33.07C128.22 33.16 128.22 33.26 128.22 33.35C128.22 33.69 128.21 34.03 128.2 34.36C128.19 34.69 128.18 35.03 128.18 35.37L128.18 35.95C128.19 36.19 128.21 36.42 128.24 36.66C128.27 36.89 128.32 37.09 128.38 37.28C128.43 37.46 128.52 37.56 128.63 37.58C128.7 37.6 128.77 37.61 128.84 37.62L129.07 37.62C129.37 37.62 129.66 37.59 129.93 37.52C130.22 37.45 130.51 37.42 130.81 37.42C130.93 37.42 131.04 37.44 131.14 37.47C131.25 37.5 131.36 37.52 131.47 37.52C131.63 37.52 131.75 37.44 131.84 37.29C131.93 37.13 131.99 36.95 132.03 36.75C132.07 36.54 132.09 36.32 132.1 36.11C132.11 35.9 132.11 35.75 132.11 35.64C132.11 35.43 132.11 35.23 132.09 35.02Q132.08 34.71 132.08 34.39L132.15 34.39C132.36 34.39 132.56 34.42 132.75 34.49C132.93 34.56 133.13 34.59 133.33 34.59C133.42 34.59 133.48 34.59 133.52 34.58L133.52 34.58Q133.52 34.83 133.61 35.09C133.67 35.26 133.7 35.43 133.7 35.61C133.7 35.83 133.58 35.97 133.34 36.02C133.41 36.14 133.47 36.26 133.51 36.38C133.55 36.5 133.57 36.62 133.57 36.75C133.57 36.84 133.56 36.93 133.55 37.03C133.53 37.11 133.52 37.2 133.52 37.29C133.52 37.38 133.55 37.44 133.6 37.49Q133.66 37.54 133.68 37.6Q133.69 37.62 133.69 37.65C133.69 37.75 133.64 37.88 133.56 38.03C133.48 38.18 133.44 38.34 133.44 38.5C133.44 38.68 133.46 38.88 133.5 39.08Q133.55 39.38 133.61 39.71C133.65 39.93 133.69 40.16 133.72 40.38C133.76 40.6 133.77 40.83 133.77 41.06C133.77 41.19 133.77 41.33 133.75 41.47C133.74 41.62 133.71 41.76 133.66 41.89C133.62 42.02 133.55 42.14 133.47 42.25C133.39 42.36 133.29 42.45 133.17 42.53C133 42.51 132.87 42.46 132.76 42.39C132.65 42.3 132.56 42.21 132.48 42.1C132.41 41.98 132.36 41.85 132.32 41.72C132.28 41.57 132.26 41.43 132.24 41.28C132.21 41.06 132.19 40.86 132.19 40.68C132.19 40.49 132.15 40.33 132.06 40.21C131.99 40.07 131.84 39.97 131.61 39.89Q131.28 39.78 130.57 39.78C130.43 39.78 130.24 39.79 129.98 39.81C129.74 39.84 129.49 39.89 129.25 39.95C129 40.01 128.79 40.1 128.6 40.22C128.42 40.34 128.34 40.49 128.34 40.66C128.34 40.76 128.35 40.87 128.36 40.97C128.39 41.06 128.4 41.16 128.4 41.26C128.4 41.34 128.4 41.43 128.39 41.51C128.38 41.6 128.38 41.69 128.38 41.78C128.38 42.01 128.39 42.24 128.41 42.46C128.44 42.68 128.45 42.91 128.45 43.14C128.45 43.38 128.42 43.62 128.35 43.86C128.29 44.09 128.26 44.33 128.26 44.58C128.26 44.85 128.32 45.07 128.45 45.23C128.59 45.38 128.75 45.5 128.96 45.58C129.16 45.66 129.38 45.71 129.62 45.73C129.85 45.76 130.07 45.77 130.28 45.77C130.68 45.77 131.09 45.75 131.49 45.7C131.9 45.64 132.3 45.62 132.71 45.62C132.96 45.62 133.22 45.63 133.47 45.66C133.72 45.68 133.98 45.7 134.23 45.7C134.42 45.7 134.64 45.69 134.88 45.68C135.11 45.67 135.34 45.62 135.55 45.56Q135.88 45.45 136.11 45.26C136.27 45.13 136.37 44.94 136.41 44.69C136.42 44.63 136.44 44.58 136.47 44.55C136.52 44.52 136.56 44.5 136.6 44.48C136.65 44.45 136.69 44.43 136.73 44.4C136.76 44.38 136.78 44.33 136.78 44.28C136.78 44.21 136.75 44.13 136.7 44.05C136.65 43.95 136.62 43.87 136.6 43.79C136.57 43.63 136.55 43.47 136.54 43.31L136.54 42.82C136.54 42.56 136.58 42.35 136.65 42.16C136.74 41.96 136.78 41.75 136.78 41.53Q136.78 41.42 136.77 41.34L136.77 41.15C136.77 41.09 136.8 41.04 136.88 40.99C136.96 40.94 137.04 40.9 137.14 40.87C137.25 40.82 137.35 40.79 137.45 40.76C137.55 40.74 137.63 40.73 137.68 40.73C137.89 40.73 138.06 40.8 138.2 40.96C138.33 41.1 138.43 41.28 138.5 41.49C138.58 41.7 138.63 41.92 138.65 42.15C138.68 42.37 138.69 42.57 138.69 42.73C138.69 42.99 138.67 43.29 138.63 43.62C138.59 43.95 138.53 44.28 138.45 44.63C138.38 44.98 138.3 45.32 138.21 45.64C138.12 45.97 138.02 46.25 137.93 46.49C137.88 46.61 137.83 46.7 137.78 46.76C137.74 46.82 137.69 46.87 137.63 46.91C137.58 46.95 137.52 46.98 137.45 47.03C137.39 47.06 137.32 47.12 137.25 47.2C137.18 47.28 137.05 47.33 136.85 47.36C136.67 47.38 136.47 47.39 136.26 47.39C136.1 47.39 135.95 47.39 135.8 47.38C135.66 47.37 135.55 47.37 135.47 47.37C135.19 47.37 134.97 47.4 134.79 47.47C134.62 47.54 134.46 47.57 134.31 47.57C134.2 47.57 134.13 47.55 134.09 47.51C134.06 47.46 134.01 47.43 133.94 47.43C133.88 47.43 133.83 47.46 133.77 47.51C133.72 47.56 133.65 47.58 133.55 47.58L133.23 47.58C133.13 47.58 133.02 47.57 132.91 47.57C132.28 47.57 131.65 47.59 131.02 47.62C130.4 47.66 129.77 47.69 129.14 47.71C128.7 47.73 128.28 47.78 127.86 47.86C127.43 47.95 127.01 47.99 126.58 47.99C126.42 47.99 126.25 47.97 126.06 47.94C125.86 47.91 125.68 47.86 125.5 47.79C125.33 47.71 125.19 47.61 125.07 47.48C124.95 47.35 124.89 47.18 124.89 46.99C124.89 46.8 124.96 46.62 125.09 46.46C125.23 46.29 125.39 46.13 125.57 45.99C125.77 45.84 125.97 45.71 126.17 45.59C126.37 45.47 126.54 45.35 126.66 45.24C126.66 45.17 126.65 45.11 126.65 45.05L126.65 44.49C126.66 44.36 126.69 44.24 126.73 44.11C126.74 44.04 126.79 43.95 126.85 43.84C126.93 43.74 126.97 43.64 126.97 43.57C126.97 43.51 126.96 43.45 126.93 43.4C126.91 43.35 126.9 43.3 126.88 43.24C126.79 43.01 126.72 42.81 126.68 42.63C126.64 42.45 126.63 42.24 126.63 41.98L126.63 41.59C126.63 41.47 126.64 41.36 126.65 41.26C126.67 41.15 126.69 41.04 126.71 40.93C126.75 40.81 126.79 40.68 126.84 40.54C126.81 40.48 126.77 40.39 126.73 40.27C126.69 40.15 126.66 40.06 126.66 39.99L126.84 38.19C126.83 38.17 126.83 38.12 126.83 38.07C126.83 37.99 126.84 37.91 126.87 37.84C126.89 37.76 126.9 37.68 126.9 37.6C126.9 37.4 126.87 37.21 126.8 37.03C126.74 36.83 126.7 36.64 126.7 36.44C126.7 36.38 126.72 36.3 126.75 36.2C126.79 36.11 126.82 36.01 126.85 35.9C126.9 35.79 126.93 35.67 126.97 35.54C127 35.41 127.02 35.26 127.02 35.11C127.02 34.99 126.99 34.89 126.93 34.81C126.88 34.72 126.85 34.63 126.85 34.52C126.85 34.41 126.88 34.31 126.93 34.21C126.98 34.11 127.01 34 127.01 33.88C127.01 33.71 126.97 33.55 126.9 33.4C126.85 33.24 126.78 33.09 126.71 32.94C126.61 32.73 126.53 32.56 126.47 32.44C126.42 32.3 126.36 32.2 126.28 32.12C126.21 32.04 126.1 31.98 125.97 31.94C125.84 31.9 125.65 31.87 125.41 31.85C125.29 31.85 125.18 31.81 125.07 31.75C124.97 31.69 124.87 31.6 124.79 31.5C124.71 31.4 124.65 31.29 124.6 31.17C124.55 31.05 124.52 30.94 124.52 30.83C124.52 30.68 124.59 30.55 124.72 30.45C124.86 30.34 125.03 30.25 125.24 30.19C125.46 30.13 125.69 30.08 125.95 30.04C126.22 30 126.47 29.97 126.71 29.95C126.97 29.93 127.2 29.91 127.4 29.9Q127.72 29.89 127.88 29.86C128.05 29.84 128.21 29.82 128.38 29.81C128.53 29.81 128.7 29.8 128.87 29.8C129.2 29.8 129.53 29.81 129.86 29.84C130.2 29.86 130.53 29.86 130.86 29.86C131.21 29.86 131.56 29.83 131.9 29.76C132.24 29.7 132.6 29.66 132.95 29.66C133.27 29.66 133.59 29.7 133.9 29.78C134.21 29.84 134.52 29.88 134.83 29.88C135.12 29.88 135.41 29.84 135.7 29.78C135.99 29.7 136.28 29.66 136.58 29.66C136.7 29.66 136.83 29.67 136.96 29.7C137.14 29.9 137.31 30.07 137.46 30.21C137.62 30.34 137.76 30.48 137.87 30.63C137.99 30.76 138.08 30.92 138.15 31.11C138.22 31.29 138.27 31.54 138.3 31.84C138.31 31.95 138.31 32.09 138.31 32.25C138.31 32.4 138.32 32.55 138.32 32.7C138.33 32.85 138.35 32.98 138.39 33.1C138.43 33.22 138.49 33.29 138.58 33.31C138.58 33.43 138.52 33.49 138.4 33.49C138.41 33.61 138.43 33.73 138.48 33.86Q138.54 34.03 138.6 34.22C138.64 34.34 138.68 34.47 138.72 34.59C138.75 34.71 138.77 34.82 138.77 34.93ZM75.26 46.87C75.26 47 75.19 47.11 75.07 47.19C74.95 47.28 74.79 47.34 74.6 47.39C74.41 47.44 74.2 47.49 73.98 47.52C73.75 47.55 73.52 47.57 73.29 47.58C73.07 47.59 72.87 47.6 72.68 47.6L72.28 47.6C72.06 47.6 71.86 47.62 71.68 47.67C71.5 47.72 71.33 47.78 71.17 47.84C71.02 47.9 70.88 47.95 70.74 48C70.61 48.05 70.47 48.08 70.34 48.08C70.22 48.08 70.12 48.04 70.03 47.96C69.96 47.89 69.86 47.85 69.74 47.85C69.61 47.85 69.48 47.82 69.36 47.76C69.24 47.7 69.14 47.63 69.04 47.53C68.95 47.43 68.88 47.32 68.82 47.19C68.77 47.06 68.74 46.94 68.74 46.81C68.74 46.65 68.78 46.52 68.85 46.41C68.94 46.3 69.04 46.21 69.17 46.14C69.3 46.06 69.43 46.01 69.58 45.99C69.73 45.95 69.87 45.94 70.01 45.94C70.13 45.94 70.24 45.95 70.35 45.99C70.46 46.01 70.56 46.06 70.65 46.14C70.66 46.01 70.7 45.91 70.76 45.82C70.81 45.73 70.88 45.64 70.95 45.57C71.01 45.48 71.07 45.4 71.12 45.3C71.18 45.21 71.21 45.1 71.21 44.96C71.21 44.74 71.2 44.52 71.17 44.3C71.15 44.07 71.14 43.85 71.14 43.63C71.14 43.49 71.15 43.34 71.17 43.2C71.21 43.05 71.22 42.91 71.22 42.75C71.22 42.59 71.21 42.41 71.19 42.24C71.17 42.06 71.16 41.88 71.16 41.7C71.16 41.53 71.19 41.39 71.24 41.28C71.29 41.17 71.31 41.07 71.31 40.98C71.31 40.8 71.28 40.63 71.22 40.45C71.17 40.26 71.09 40.1 70.98 39.95C70.88 39.8 70.76 39.67 70.63 39.57C70.49 39.46 70.35 39.4 70.21 39.37Q69.58 39.26 68.94 39.26C68.83 39.26 68.72 39.28 68.61 39.32C68.51 39.35 68.43 39.37 68.37 39.37C68.32 39.37 68.26 39.35 68.2 39.32C68.13 39.28 68.08 39.26 68.06 39.26C67.95 39.26 67.83 39.28 67.71 39.32C67.6 39.35 67.49 39.39 67.37 39.43L67.02 39.56C66.9 39.59 66.78 39.61 66.67 39.61C66.49 39.61 66.29 39.62 66.09 39.62L66.09 39.62Q65.8 39.62 65.51 39.67C65.32 39.7 65.14 39.76 64.96 39.84C64.79 39.92 64.64 40.03 64.51 40.18L64.51 40.27C64.51 40.44 64.51 40.6 64.52 40.76C64.53 40.92 64.53 41.08 64.53 41.25C64.53 41.44 64.52 41.62 64.49 41.79C64.47 41.96 64.41 42.13 64.32 42.31C64.29 42.38 64.28 42.44 64.28 42.49C64.28 42.62 64.3 42.75 64.36 42.88C64.41 43 64.43 43.13 64.43 43.26C64.43 43.32 64.41 43.38 64.37 43.45C64.33 43.52 64.3 43.59 64.3 43.67Q64.3 43.81 64.34 43.95Q64.35 43.98 64.36 44.01C64.4 44.12 64.44 44.23 64.49 44.35C64.55 44.46 64.59 44.57 64.63 44.68C64.68 44.79 64.71 44.91 64.72 45.02C64.75 45.27 64.83 45.45 64.98 45.58C65.13 45.7 65.3 45.8 65.5 45.87C65.69 45.94 65.89 46 66.1 46.06C66.32 46.12 66.51 46.21 66.67 46.32C66.66 46.4 66.65 46.46 66.65 46.51C66.65 46.65 66.67 46.79 66.73 46.91C66.78 47.04 66.8 47.17 66.8 47.32C66.8 47.46 66.75 47.58 66.64 47.66C66.54 47.74 66.41 47.8 66.26 47.84C66.1 47.88 65.95 47.9 65.79 47.91C65.64 47.92 65.51 47.93 65.41 47.93C65.39 47.93 65.36 47.92 65.31 47.9C65.26 47.89 65.2 47.88 65.14 47.85L64.99 47.8L64.87 47.76C64.4 47.85 63.92 47.91 63.43 47.94C62.94 47.96 62.45 47.98 61.97 47.98C61.85 47.98 61.68 47.96 61.48 47.94C61.28 47.92 61.07 47.88 60.87 47.81C60.68 47.75 60.51 47.67 60.36 47.56C60.23 47.44 60.16 47.29 60.16 47.1C60.16 47.02 60.17 46.92 60.2 46.81C60.22 46.69 60.26 46.58 60.31 46.47C60.36 46.36 60.42 46.26 60.49 46.16C60.56 46.07 60.63 46 60.72 45.96Q61 45.83 61.34 45.77C61.58 45.72 61.79 45.64 62 45.54Q62.04 45.52 62.08 45.5L62.08 45.5Q62.34 45.33 62.53 45.05C62.67 44.83 62.75 44.5 62.75 44.06C62.75 43.84 62.74 43.63 62.72 43.41C62.7 43.2 62.69 42.99 62.69 42.77C62.69 42.65 62.7 42.53 62.71 42.41C62.72 42.29 62.72 42.16 62.72 42.05C62.72 41.68 62.7 41.32 62.66 40.97C62.62 40.6 62.61 40.24 62.61 39.88C62.61 39.73 62.62 39.57 62.64 39.42C62.67 39.26 62.68 39.11 62.68 38.97C62.68 38.75 62.65 38.55 62.59 38.34C62.53 38.14 62.5 37.94 62.5 37.74C62.5 37.69 62.51 37.66 62.52 37.65C62.55 37.6 62.58 37.52 62.61 37.39C62.63 37.26 62.65 37.11 62.67 36.96C62.69 36.81 62.71 36.67 62.72 36.53C62.74 36.4 62.75 36.3 62.75 36.23C62.75 36.02 62.72 35.83 62.68 35.63C62.65 35.43 62.63 35.23 62.63 35.02C62.63 34.91 62.64 34.79 62.66 34.67C62.68 34.54 62.69 34.42 62.69 34.3C62.69 34.25 62.69 34.22 62.67 34.21C62.65 34.2 62.63 34.18 62.61 34.17C62.58 34.17 62.56 34.15 62.54 34.14C62.53 34.11 62.52 34.06 62.52 33.98C62.52 33.92 62.56 33.83 62.63 33.73C62.71 33.62 62.75 33.52 62.75 33.43C62.75 33.35 62.72 33.24 62.67 33.11C62.62 32.97 62.55 32.82 62.47 32.68C62.39 32.53 62.31 32.4 62.21 32.29Q62.09 32.11 61.97 32.04C61.81 31.97 61.63 31.91 61.41 31.88C61.21 31.84 61.02 31.79 60.83 31.73C60.65 31.66 60.49 31.56 60.36 31.44C60.24 31.31 60.17 31.12 60.17 30.87C60.17 30.64 60.24 30.45 60.36 30.31C60.49 30.16 60.65 30.03 60.83 29.94C61.03 29.85 61.23 29.78 61.45 29.75C61.67 29.71 61.87 29.69 62.05 29.69C62.18 29.69 62.31 29.7 62.47 29.71C62.63 29.72 62.78 29.74 62.94 29.78C63.1 29.81 63.25 29.85 63.39 29.9C63.54 29.95 63.67 30 63.78 30.05C63.99 29.99 64.19 29.93 64.41 29.89Q64.72 29.83 65.05 29.83C65.18 29.83 65.31 29.84 65.46 29.86C65.61 29.89 65.75 29.94 65.86 30.02C65.99 30.09 66.09 30.2 66.17 30.33C66.25 30.46 66.29 30.63 66.29 30.84C66.29 30.93 66.28 31.01 66.26 31.07C66.23 31.12 66.19 31.14 66.13 31.14C65.9 31.14 65.67 31.2 65.43 31.31C65.2 31.41 64.99 31.55 64.8 31.73C64.6 31.91 64.44 32.11 64.32 32.34C64.2 32.56 64.14 32.78 64.14 33.01C64.14 33.12 64.15 33.22 64.18 33.33C64.25 33.59 64.32 33.84 64.37 34.1C64.42 34.35 64.44 34.61 64.44 34.88Q64.44 35.23 64.39 35.57C64.36 35.79 64.34 36.01 64.34 36.24Q64.34 36.68 64.55 36.96C64.69 37.14 64.87 37.28 65.09 37.38C65.31 37.48 65.55 37.55 65.8 37.58C66.06 37.62 66.32 37.63 66.56 37.63C66.81 37.63 67.05 37.63 67.3 37.61C67.54 37.58 67.79 37.57 68.04 37.57Q68.22 37.57 68.39 37.59L68.39 37.59L68.39 37.59Q68.59 37.62 68.79 37.67C69.04 37.73 69.29 37.76 69.54 37.76C69.63 37.76 69.73 37.76 69.82 37.75C69.91 37.73 69.99 37.7 70.06 37.66C70.08 37.64 70.12 37.61 70.17 37.57C70.23 37.53 70.29 37.49 70.35 37.46C70.42 37.41 70.48 37.38 70.53 37.34C70.59 37.31 70.63 37.29 70.65 37.29C70.8 37.27 70.91 37.18 70.98 37.04Q71.1 36.82 71.15 36.56C71.19 36.37 71.22 36.19 71.22 36C71.23 35.8 71.24 35.65 71.24 35.53C71.24 35.4 71.22 35.26 71.17 35.14C71.13 35.01 71.08 34.89 71.02 34.77C70.97 34.64 70.92 34.52 70.88 34.39C70.84 34.26 70.82 34.13 70.82 33.98C70.82 33.82 70.83 33.65 70.86 33.48C70.89 33.3 70.91 33.13 70.91 32.96C70.91 32.6 70.84 32.34 70.71 32.16C70.58 31.98 70.42 31.85 70.22 31.77C70.03 31.68 69.81 31.63 69.58 31.6C69.35 31.58 69.14 31.54 68.94 31.49C68.75 31.43 68.58 31.34 68.45 31.22C68.32 31.1 68.26 30.91 68.26 30.64C68.26 30.46 68.3 30.32 68.37 30.22C68.45 30.12 68.55 30.04 68.66 29.99C68.79 29.93 68.93 29.89 69.07 29.88C69.21 29.86 69.35 29.85 69.49 29.85C69.76 29.85 70.02 29.87 70.27 29.9C70.54 29.94 70.8 29.95 71.07 29.95C71.33 29.95 71.61 29.93 71.91 29.88C72.21 29.83 72.52 29.8 72.83 29.8C73 29.8 73.2 29.81 73.43 29.84C73.66 29.86 73.88 29.9 74.09 29.97Q74.41 30.07 74.62 30.27C74.77 30.41 74.84 30.59 74.84 30.83C74.84 30.99 74.79 31.12 74.71 31.22C74.63 31.31 74.52 31.4 74.39 31.47C74.27 31.54 74.12 31.6 73.96 31.65C73.8 31.7 73.65 31.76 73.49 31.82C73.34 31.87 73.2 31.93 73.08 32.01C72.95 32.07 72.86 32.17 72.8 32.29C72.74 32.39 72.7 32.5 72.68 32.63C72.67 32.75 72.67 32.88 72.67 33C72.67 33.22 72.68 33.43 72.69 33.64C72.72 33.85 72.73 34.07 72.73 34.29C72.73 35.05 72.71 35.8 72.66 36.56C72.61 37.3 72.58 38.05 72.58 38.8L72.58 39.59C72.59 39.84 72.61 40.1 72.63 40.36C72.65 40.6 72.69 40.85 72.77 41.08C72.85 41.31 72.89 41.55 72.89 41.79C72.89 41.91 72.87 42 72.85 42.07C72.82 42.14 72.79 42.2 72.76 42.25C72.73 42.3 72.71 42.35 72.68 42.39C72.66 42.43 72.64 42.48 72.64 42.53C72.64 42.67 72.68 42.81 72.75 42.95C72.81 43.08 72.85 43.22 72.85 43.36L72.85 43.36Q72.85 43.64 72.78 43.92C72.75 44.11 72.73 44.29 72.73 44.48C72.73 44.5 72.75 44.56 72.77 44.68C72.8 44.79 72.84 44.91 72.87 45.05C72.91 45.18 72.96 45.31 73 45.43C73.04 45.55 73.08 45.62 73.1 45.64Q73.13 45.67 73.16 45.7Q73.3 45.81 73.47 45.87C73.61 45.92 73.76 45.97 73.92 46.01C74.08 46.05 74.24 46.08 74.39 46.13C74.55 46.17 74.69 46.23 74.81 46.32C74.9 46.38 74.99 46.46 75.09 46.56Q75.22 46.66 75.25 46.79Q75.26 46.83 75.26 46.87ZM122.43 41.26C122.43 41.69 122.4 42.11 122.34 42.53C122.29 42.94 122.25 43.36 122.23 43.79C122.17 43.74 122.1 43.69 122.03 43.65C121.96 43.61 121.89 43.59 121.81 43.59C121.72 43.59 121.63 43.62 121.54 43.68C121.46 43.74 121.42 43.82 121.42 43.91C121.42 44.01 121.46 44.08 121.56 44.11C121.66 44.14 121.76 44.16 121.86 44.16C121.94 44.16 122 44.16 122.04 44.15C122.04 44.25 122.01 44.36 121.95 44.47C121.9 44.57 121.83 44.67 121.75 44.77C121.67 44.87 121.59 44.97 121.49 45.06L121.26 45.29C121.21 45.34 121.16 45.41 121.1 45.51C121.04 45.6 120.97 45.69 120.9 45.78C120.83 45.87 120.76 45.94 120.68 46.01C120.61 46.07 120.53 46.1 120.45 46.1C120.37 46.1 120.3 46.08 120.25 46.04C120.2 45.99 120.14 45.96 120.07 45.96C119.98 45.96 119.92 46.01 119.9 46.11C119.88 46.21 119.87 46.3 119.87 46.39L119.87 46.54Q119.87 46.61 119.6 46.71C119.43 46.78 119.21 46.85 118.96 46.94C118.71 47.01 118.46 47.09 118.18 47.18C117.92 47.25 117.7 47.33 117.53 47.41C117.18 47.55 116.83 47.67 116.47 47.76C116.12 47.85 115.75 47.9 115.37 47.9C115.09 47.9 114.82 47.86 114.56 47.79C114.31 47.72 114.05 47.64 113.79 47.56C113.53 47.47 113.28 47.39 113.01 47.32C112.76 47.24 112.49 47.2 112.21 47.2C112.11 47.2 111.96 47.22 111.78 47.25C111.61 47.29 111.47 47.34 111.38 47.41C111.34 47.44 111.29 47.5 111.25 47.58C111.21 47.68 111.16 47.72 111.1 47.72C111.06 47.72 111 47.71 110.92 47.67C110.85 47.64 110.79 47.61 110.76 47.6C110.56 47.5 110.4 47.36 110.26 47.2C110.13 47.03 110.01 46.85 109.92 46.66C109.83 46.46 109.76 46.26 109.72 46.05C109.68 45.83 109.65 45.62 109.65 45.42C109.65 45.27 109.67 45.13 109.69 45C109.73 44.85 109.74 44.71 109.74 44.57C109.74 44.36 109.72 44.17 109.67 43.97C109.63 43.78 109.6 43.58 109.6 43.38C109.6 43.23 109.63 43.09 109.67 42.95C109.72 42.8 109.74 42.66 109.74 42.51C109.74 42.4 109.72 42.3 109.67 42.21C109.62 42.11 109.59 42 109.59 41.89C109.59 41.82 109.62 41.75 109.67 41.7C109.73 41.65 109.76 41.59 109.76 41.53C109.76 41.42 109.75 41.32 109.74 41.22C109.73 41.12 109.73 41.02 109.73 40.92L109.73 40.7C109.74 40.6 109.75 40.5 109.77 40.41C109.79 40.32 109.82 40.24 109.86 40.17C109.9 40.1 109.96 40.07 110.03 40.07C110.19 40.07 110.34 40.16 110.49 40.36Q110.73 40.64 110.92 41.02C111.06 41.27 111.17 41.53 111.25 41.78C111.34 42.03 111.38 42.22 111.38 42.35C111.38 42.39 111.36 42.43 111.33 42.48C111.29 42.51 111.25 42.53 111.2 42.53C111.23 42.59 111.27 42.67 111.32 42.79C111.36 42.91 111.38 43 111.38 43.07C111.38 43.17 111.36 43.27 111.33 43.36C111.3 43.46 111.29 43.55 111.29 43.65Q111.29 43.73 111.31 43.8Q111.32 43.85 111.34 43.9C111.38 43.97 111.42 44.04 111.47 44.11C111.53 44.21 111.59 44.29 111.64 44.34C111.7 44.39 111.75 44.43 111.81 44.45C111.87 44.47 111.93 44.48 112 44.49C112.08 44.5 112.17 44.51 112.29 44.52C112.46 44.76 112.65 44.99 112.86 45.2C113.07 45.41 113.3 45.6 113.55 45.77C113.93 45.86 114.3 45.92 114.67 45.97C115.05 46.02 115.42 46.05 115.8 46.05C116.11 46.05 116.38 46.02 116.61 45.95C116.85 45.88 117.07 45.79 117.26 45.68C117.46 45.57 117.66 45.45 117.84 45.32C118.03 45.17 118.22 45.02 118.43 44.87C118.57 44.77 118.72 44.67 118.88 44.58C119.04 44.49 119.2 44.39 119.35 44.29C119.5 44.19 119.65 44.08 119.78 43.96C119.92 43.83 120.03 43.69 120.12 43.53C120.18 43.43 120.27 43.33 120.38 43.22C120.5 43.11 120.55 43 120.55 42.87C120.55 42.82 120.55 42.78 120.54 42.75C120.51 42.48 120.48 42.22 120.47 41.97Q120.45 41.58 120.43 41.17C120.41 40.92 120.36 40.73 120.26 40.6C120.17 40.47 120.05 40.36 119.91 40.27C119.77 40.18 119.63 40.09 119.46 40C119.3 39.92 119.15 39.8 119 39.65C118.84 39.49 118.65 39.39 118.45 39.35C118.26 39.3 118.05 39.28 117.84 39.27C117.63 39.26 117.42 39.25 117.21 39.23C117.01 39.21 116.82 39.13 116.64 38.99C116.59 38.96 116.55 38.94 116.51 38.94C116.44 38.94 116.36 38.97 116.28 39.02C116.22 39.06 116.14 39.08 116.06 39.08C115.93 39.08 115.8 39.06 115.66 39.03C115.54 38.99 115.41 38.96 115.28 38.91L114.9 38.79C114.78 38.75 114.65 38.72 114.52 38.7C114.35 38.67 114.21 38.66 114.1 38.65C114 38.64 113.9 38.63 113.81 38.61C113.73 38.58 113.63 38.55 113.53 38.51C113.43 38.46 113.3 38.38 113.15 38.28C112.71 37.99 112.24 37.78 111.75 37.65C111.65 37.41 111.53 37.17 111.38 36.92C111.29 36.87 111.19 36.81 111.1 36.76C111.02 36.7 110.93 36.64 110.85 36.57C110.8 36.49 110.73 36.34 110.64 36.13C110.57 35.91 110.49 35.69 110.42 35.45C110.34 35.21 110.27 34.98 110.21 34.77C110.16 34.56 110.14 34.41 110.14 34.31C110.14 34.12 110.16 33.93 110.2 33.76C110.24 33.58 110.34 33.42 110.49 33.27C110.52 33.26 110.55 33.24 110.58 33.21C110.62 33.18 110.64 33.14 110.64 33.1C110.64 33.05 110.61 33.03 110.54 33.01C110.48 32.98 110.45 32.94 110.45 32.87C110.45 32.86 110.46 32.85 110.47 32.83C110.47 32.81 110.48 32.78 110.48 32.77Q110.57 32.49 110.74 32.23C110.86 32.07 111 31.91 111.15 31.75C111.3 31.6 111.46 31.46 111.62 31.34C111.79 31.2 111.95 31.08 112.1 30.97C112.21 30.89 112.3 30.79 112.38 30.68C112.46 30.56 112.55 30.47 112.65 30.42L112.82 30.42C112.88 30.41 112.94 30.41 113 30.41C113.07 30.41 113.13 30.41 113.18 30.42L113.37 30.42C113.46 30.39 113.52 30.35 113.56 30.31C113.59 30.26 113.63 30.21 113.66 30.17C113.69 30.13 113.74 30.09 113.79 30.07C113.85 30.04 113.95 30.03 114.09 30.03C114.18 30.03 114.28 30.03 114.37 30.04L114.65 30.04C114.97 30.04 115.29 30.04 115.6 30.03C115.92 30.02 116.24 30.02 116.56 30.02C116.79 30.02 117.01 30.02 117.23 30.03C117.46 30.03 117.69 30.05 117.92 30.08C118.07 30.1 118.22 30.13 118.36 30.18C118.51 30.22 118.66 30.25 118.82 30.25C118.97 30.25 119.08 30.22 119.14 30.16C119.2 30.1 119.25 30.03 119.29 29.97C119.33 29.9 119.38 29.84 119.43 29.78C119.48 29.72 119.57 29.69 119.69 29.69C119.87 29.69 120.05 29.73 120.24 29.83C120.43 29.92 120.61 30 120.78 30.05L120.77 30.11C120.74 30.18 120.73 30.27 120.73 30.36C120.73 30.5 120.75 30.65 120.8 30.79L120.95 31.2C121 31.33 121.04 31.47 121.09 31.6C121.14 31.74 121.16 31.88 121.16 32.03C121.16 32.13 121.15 32.21 121.14 32.3C121.12 32.37 121.11 32.46 121.11 32.55C121.11 32.72 121.15 32.84 121.21 32.92C121.28 32.99 121.32 33.05 121.32 33.11C121.32 33.18 121.29 33.24 121.23 33.29C121.17 33.33 121.14 33.4 121.14 33.49C121.14 33.71 121.15 33.93 121.18 34.15C121.2 34.36 121.21 34.58 121.21 34.8C121.21 34.87 121.21 34.99 121.2 35.14C121.2 35.29 121.18 35.44 121.15 35.59C121.13 35.74 121.08 35.86 121.01 35.97C120.95 36.08 120.86 36.14 120.74 36.14C120.62 36.14 120.5 36.09 120.38 36C120.26 35.9 120.16 35.8 120.09 35.71C119.98 35.59 119.9 35.46 119.84 35.33C119.79 35.18 119.75 35.04 119.72 34.88C119.68 34.73 119.65 34.58 119.6 34.44C119.56 34.29 119.5 34.15 119.41 34.02C119.28 33.83 119.15 33.63 119.02 33.44L118.67 32.83C118.57 32.68 118.49 32.57 118.43 32.51C118.36 32.45 118.29 32.42 118.21 32.4C118.13 32.37 118.05 32.36 117.94 32.36C117.85 32.36 117.73 32.35 117.59 32.32C117.44 32.3 117.28 32.26 117.13 32.21C116.99 32.16 116.84 32.11 116.69 32.07C116.55 32.02 116.4 31.98 116.25 31.94C116.09 31.9 115.94 31.88 115.79 31.88C115.54 31.88 115.29 31.92 115.04 31.99C114.79 32.07 114.53 32.17 114.28 32.29C114.03 32.4 113.78 32.51 113.53 32.64C113.29 32.76 113.05 32.86 112.82 32.94C112.61 33.39 112.51 33.87 112.51 34.39C112.51 34.76 112.55 35.07 112.63 35.3C112.72 35.54 112.83 35.74 112.98 35.91C113.13 36.07 113.3 36.21 113.48 36.34C113.68 36.47 113.88 36.6 114.09 36.75C114.31 36.89 114.53 36.99 114.74 37.04C114.96 37.08 115.19 37.1 115.45 37.1C115.59 37.1 115.73 37.1 115.87 37.09C116.01 37.08 116.15 37.08 116.3 37.08C116.46 37.08 116.61 37.1 116.75 37.14C116.9 37.18 117.04 37.23 117.17 37.29C117.31 37.34 117.46 37.39 117.6 37.43C117.75 37.47 117.89 37.49 118.05 37.49C118.19 37.49 118.32 37.49 118.45 37.47C118.59 37.45 118.72 37.44 118.86 37.44C118.97 37.44 119.08 37.47 119.17 37.53C119.27 37.58 119.36 37.65 119.45 37.72C119.55 37.79 119.64 37.85 119.73 37.91C119.83 37.97 119.94 38.01 120.06 38.01C120.23 38.1 120.37 38.18 120.48 38.24C120.59 38.31 120.69 38.38 120.77 38.46C120.86 38.53 120.95 38.63 121.02 38.74C121.11 38.85 121.2 38.98 121.3 39.14C121.4 39.3 121.52 39.44 121.67 39.56C121.82 39.68 121.94 39.82 122.04 39.99C122.07 40.05 122.09 40.12 122.1 40.21C122.11 40.28 122.12 40.36 122.14 40.44C122.16 40.5 122.18 40.57 122.22 40.63C122.26 40.68 122.32 40.71 122.41 40.71C122.41 40.81 122.42 40.9 122.42 40.99C122.43 41.08 122.43 41.17 122.43 41.26ZM88.89 38.97C88.89 38.49 88.85 38.02 88.77 37.56L88.54 36.16C88.5 36 88.45 35.83 88.37 35.68C88.31 35.53 88.25 35.37 88.2 35.21C88.09 34.91 88 34.61 87.9 34.3L87.63 33.39C87.57 33.2 87.45 33.04 87.27 32.91C87.09 32.76 86.89 32.64 86.65 32.55C86.41 32.45 86.16 32.37 85.88 32.31C85.61 32.24 85.34 32.19 85.09 32.16Q84.71 32.1 84.38 32.08C84.17 32.07 84.01 32.06 83.9 32.06C83.72 32.06 83.54 32.05 83.37 32.03C83.19 32.02 83.01 32.01 82.82 32.01C82.67 32.01 82.52 32.02 82.37 32.04C82.22 32.06 82.09 32.12 81.97 32.21C81.69 32.43 81.43 32.64 81.19 32.83C80.94 33.02 80.74 33.27 80.58 33.6C80.53 33.71 80.47 33.79 80.41 33.84C80.35 33.89 80.3 33.93 80.24 33.98C80.19 34.03 80.14 34.08 80.1 34.14C80.05 34.2 80.03 34.29 80.01 34.43C79.97 34.67 79.92 34.92 79.86 35.16C79.81 35.4 79.78 35.64 79.78 35.89C79.78 36.15 79.75 36.41 79.7 36.67C79.66 36.92 79.59 37.17 79.49 37.42C79.46 37.49 79.44 37.55 79.41 37.61C79.4 37.67 79.39 37.73 79.39 37.8C79.39 37.93 79.42 38.04 79.48 38.13C79.54 38.21 79.56 38.29 79.56 38.36C79.56 38.39 79.55 38.41 79.53 38.42C79.51 38.42 79.49 38.43 79.46 38.45C79.45 38.45 79.43 38.48 79.4 38.52C79.38 38.56 79.37 38.64 79.37 38.75L79.37 39.5C79.38 39.75 79.41 40 79.45 40.25C79.48 40.39 79.52 40.53 79.58 40.66C79.64 40.79 79.68 40.93 79.68 41.07C79.68 41.16 79.66 41.26 79.62 41.35C79.57 41.44 79.55 41.54 79.55 41.64C79.55 41.76 79.59 41.85 79.65 41.93C79.72 42 79.79 42.08 79.86 42.17C79.91 42.24 79.95 42.33 79.98 42.44C80.03 42.54 80.06 42.64 80.1 42.73C80.14 42.82 80.18 42.9 80.21 42.97C80.24 43.04 80.28 43.07 80.33 43.07C80.36 43.07 80.39 43.07 80.41 43.06C80.44 43.04 80.47 43.03 80.5 43.03C80.67 43.03 80.8 43.11 80.88 43.26C80.98 43.41 81.02 43.55 81.02 43.69C81.02 43.81 81.06 43.91 81.12 44C81.19 44.07 81.27 44.14 81.36 44.21L81.64 44.42C81.74 44.47 81.83 44.54 81.9 44.62C82.01 44.74 82.09 44.83 82.15 44.87C82.22 44.91 82.28 44.94 82.33 44.96C82.38 44.97 82.42 44.98 82.47 44.99C82.52 44.99 82.58 45.02 82.66 45.07C82.75 45.14 82.84 45.22 82.94 45.3C83.04 45.38 83.13 45.45 83.23 45.52C83.49 45.7 83.78 45.82 84.1 45.86C84.43 45.89 84.75 45.91 85.07 45.91C85.19 45.91 85.31 45.88 85.42 45.82C85.53 45.76 85.64 45.7 85.75 45.63C85.86 45.56 85.97 45.49 86.08 45.43C86.2 45.37 86.32 45.34 86.46 45.34C86.57 45.34 86.68 45.37 86.8 45.42C87 45.12 87.18 44.88 87.36 44.71C87.54 44.53 87.7 44.36 87.84 44.19C87.98 44.02 88.11 43.82 88.21 43.6C88.31 43.38 88.38 43.08 88.42 42.7C88.44 42.54 88.48 42.4 88.55 42.26C88.63 42.12 88.67 41.97 88.69 41.82C88.73 41.48 88.75 41.14 88.75 40.8C88.76 40.47 88.79 40.13 88.84 39.79C88.86 39.65 88.87 39.52 88.88 39.38C88.89 39.25 88.89 39.11 88.89 38.97ZM47.84 36.82C47.84 36.62 47.81 36.42 47.74 36.24C47.69 36.13 47.67 36.06 47.62 36.03C47.55 35.99 47.42 36.03 47.11 36.15L47.09 36.15C46.3 36.44 45.15 36.47 36.73 36.48L28.15 36.48L27.26 37.37C25.76 38.89 25.64 38.89 24.21 37.47L23.22 36.49L13.7 36.45C6.1 36.43 4.09 36.39 3.75 36.29C3.29 36.14 3.16 36.19 3.16 36.68C3.16 36.77 3.16 36.88 3.17 37C3.26 38.48 4.66 39.19 6.41 38.65C8.25 38.09 9.8 38.37 11.56 39.56C12.54 40.22 12.95 40.36 13.9 40.36C14.85 40.36 15.26 40.22 16.26 39.54C17.6 38.63 18.81 38.27 20.17 38.39C21.14 38.47 21.95 38.79 23.14 39.56C24.38 40.35 25.01 40.52 26.13 40.33C26.72 40.23 26.97 40.11 27.74 39.61C28.92 38.83 29.54 38.56 30.49 38.43C31.95 38.21 33.28 38.56 34.71 39.54C35.72 40.22 36.13 40.36 37.08 40.36C38.02 40.36 38.44 40.22 39.41 39.56C41.19 38.36 42.71 38.09 44.61 38.67C45.57 38.96 46.4 38.89 46.96 38.48C47.52 38.08 47.84 37.43 47.84 36.82ZM127.79 38.05C127.74 38.05 127.69 38.06 127.65 38.08C127.61 38.09 127.58 38.13 127.56 38.19C127.88 38.38 128.14 38.56 128.32 38.72C128.52 38.88 128.67 39.02 128.77 39.12C128.88 39.22 128.96 39.28 129.01 39.29C129.06 39.3 129.11 39.25 129.16 39.13C129.19 39.07 129.2 39 129.2 38.94C129.2 38.86 129.18 38.78 129.12 38.7C129.04 38.56 128.92 38.45 128.75 38.36C128.6 38.26 128.43 38.19 128.25 38.14C128.07 38.08 127.92 38.05 127.79 38.05ZM10.38 41.15C9.83 40.79 9.34 40.55 8.98 40.46C8.2 40.28 7.75 40.3 6.84 40.58C6.05 40.83 4.96 40.91 4.39 40.77L4.13 40.7L4.13 42.17C4.13 43.15 4.18 43.83 4.28 44.2C4.73 45.93 6.01 47.27 7.73 47.79C8.3 47.96 9.1 47.97 25.24 47.97C41.38 47.97 42.19 47.96 42.75 47.79C44.47 47.27 45.76 45.93 46.21 44.2C46.3 43.83 46.35 43.16 46.35 42.23L46.35 40.82L45.63 40.82C45.14 40.82 44.64 40.74 44.08 40.57C42.67 40.15 41.89 40.29 40.51 41.2C39.33 41.97 38.8 42.19 37.8 42.32C36.27 42.53 35.24 42.24 33.55 41.14C32.83 40.68 32.49 40.52 31.99 40.42C30.87 40.21 30.06 40.42 28.89 41.21C26.59 42.78 24.39 42.78 22.08 41.21C20.92 40.43 20.09 40.22 18.97 40.43C18.46 40.52 18.12 40.68 17.29 41.22C16.13 41.97 15.37 42.27 14.33 42.36C12.97 42.48 11.88 42.15 10.38 41.15Z" fill="#FFFFFF" fill-opacity="1.000000" fill-rule="evenodd"/>
</svg>
